<svg width="841" height="840" viewBox="0 0 841 840" fill="none" xmlns="http://www.w3.org/2000/svg">
<path fill-rule="evenodd" clip-rule="evenodd" d="M389 1.135C265.81 10.269 153.341 73.207 79.738 174.2C-6.95397 293.152 -24.208 451.268 34.694 587C84.506 701.788 185.25 790.036 305.177 823.932C482.239 873.978 669.79 803.939 771.249 649.882C820.6 574.947 845.757 480.195 838.924 394.987C837.492 377.119 835.323 372.279 826.79 367.903C820.458 364.656 814.452 365.337 804.846 370.392C782.022 382.402 760.991 383.024 739 372.34C730.992 368.45 728.162 366.373 720.978 359.113C714.081 352.142 711.411 348.502 706.978 340.025C699.986 326.654 696.065 323.474 686.664 323.549C681.583 323.59 679.231 324.249 673.283 327.296C656.188 336.052 641.77 339.311 620 339.342C602.459 339.366 595.939 338.379 581.38 333.491C552.348 323.746 526.773 301.344 512.642 273.283C503.829 255.781 500.628 241.55 500.658 220C500.689 198.449 503.894 184.089 512.481 167.038C516.631 158.796 517.576 153.852 516.068 148.253C514.357 141.898 510.816 138.554 499.69 132.784C491.489 128.531 487.819 125.841 480.887 119C473.614 111.822 471.557 109.023 467.66 101C456.976 79.009 457.598 57.978 469.608 35.154C473.08 28.557 474 25.772 474 21.864C474 14.038 469.773 7.39 462.443 3.691C456.069 0.474 416.488 -0.903999 389 1.135ZM670.618 1.04799C664.29 2.638 655.284 7.968 650.912 12.711C648.667 15.147 645.405 20.147 643.665 23.82C640.799 29.869 640.5 31.402 640.5 40.052C640.5 49.067 640.71 50.028 644.235 57.16C648.733 66.262 654.523 71.931 663.82 76.335C669.861 79.197 671.409 79.5 680 79.5C688.591 79.5 690.139 79.197 696.18 76.335C705.477 71.931 711.267 66.262 715.765 57.16C719.294 50.02 719.5 49.075 719.5 40C719.5 30.925 719.294 29.98 715.765 22.84C709.008 9.16699 697.003 1.144 682.249 0.442C677.987 0.239 672.753 0.511995 670.618 1.04799ZM640.332 161.79C615.245 170.757 613.051 205.039 636.818 216.71C644.911 220.684 655.089 220.684 663.182 216.71C673.909 211.442 679.459 202.335 679.459 190C679.459 181.481 677.382 175.783 672.076 169.739C664.906 161.574 650.812 158.044 640.332 161.79ZM363.437 223.425C373.896 228.543 379.459 237.769 379.459 250C379.459 258.519 377.382 264.217 372.076 270.261C363.94 279.527 348.359 282.377 336.818 276.71C320.792 268.84 315.314 248.934 324.98 233.693C332.958 221.113 349.619 216.665 363.437 223.425ZM813.211 221.071C808.446 222.529 802.326 229.076 800.95 234.187C798.556 243.077 802.113 252.421 809.683 257.127C815.355 260.653 825.121 260.509 830.7 256.817C836.942 252.686 839.5 247.798 839.5 240C839.5 232.302 836.947 227.317 830.985 223.372C826.696 220.533 818.454 219.466 813.211 221.071ZM232.5 321.504C259.485 327.17 279.965 352.409 279.965 380C279.965 412.356 252.356 439.965 220 439.965C192.451 439.965 167.161 419.444 161.504 392.5C157.231 372.145 163.055 352.764 177.909 337.909C192.772 323.046 212.133 317.228 232.5 321.504ZM423.437 403.425C433.896 408.543 439.459 417.769 439.459 430C439.459 442.335 433.909 451.442 423.182 456.71C418.497 459.01 416.184 459.5 410 459.5C403.816 459.5 401.503 459.01 396.818 456.71C380.792 448.84 375.314 428.934 384.98 413.693C392.958 401.113 409.619 396.665 423.437 403.425ZM276.429 543.82C285.452 548.043 291.29 553.785 295.765 562.84C299.294 569.98 299.5 570.925 299.5 580C299.5 589.075 299.294 590.02 295.765 597.16C291.267 606.262 285.477 611.931 276.18 616.335C270.139 619.197 268.591 619.5 260 619.5C251.409 619.5 249.861 619.197 243.82 616.335C234.523 611.931 228.733 606.262 224.235 597.16C220.71 590.028 220.5 589.067 220.5 580.052C220.5 571.402 220.799 569.869 223.665 563.82C227.683 555.338 233.404 549.129 240.866 545.152C248.743 540.954 253.053 540.004 262.249 540.442C268.251 540.728 271.448 541.489 276.429 543.82ZM540.201 561.105C562.753 565.808 580 586.997 580 610C580 636.989 556.989 660 530 660C503.011 660 480 636.989 480 610C480 587.548 496.428 566.737 518.348 561.42C524.935 559.822 533.46 559.699 540.201 561.105Z" fill="black"/>
</svg>
