<svg id="visual" viewBox="0 0 1920 1080" width="1920" height="1080" xmlns="http://www.w3.org/2000/svg" xmlns:xlink="http://www.w3.org/1999/xlink" version="1.1"><path d="M0 217L32 262C64 307 128 397 192 386.2C256 375.3 320 263.7 384 233C448 202.3 512 252.7 576 261.7C640 270.7 704 238.3 768 238.3C832 238.3 896 270.7 960 299.5C1024 328.3 1088 353.7 1152 348.3C1216 343 1280 307 1344 317.8C1408 328.7 1472 386.3 1536 399C1600 411.7 1664 379.3 1728 336.2C1792 293 1856 239 1888 212L1920 185L1920 0L1888 0C1856 0 1792 0 1728 0C1664 0 1600 0 1536 0C1472 0 1408 0 1344 0C1280 0 1216 0 1152 0C1088 0 1024 0 960 0C896 0 832 0 768 0C704 0 640 0 576 0C512 0 448 0 384 0C320 0 256 0 192 0C128 0 64 0 32 0L0 0Z" fill="#6198ff"></path><path d="M0 282L32 327C64 372 128 462 192 483.5C256 505 320 458 384 438.2C448 418.3 512 425.7 576 427.5C640 429.3 704 425.7 768 436.5C832 447.3 896 472.7 960 492.5C1024 512.3 1088 526.7 1152 508.7C1216 490.7 1280 440.3 1344 438.5C1408 436.7 1472 483.3 1536 504.8C1600 526.3 1664 522.7 1728 499.3C1792 476 1856 433 1888 411.5L1920 390L1920 183L1888 210C1856 237 1792 291 1728 334.2C1664 377.3 1600 409.7 1536 397C1472 384.3 1408 326.7 1344 315.8C1280 305 1216 341 1152 346.3C1088 351.7 1024 326.3 960 297.5C896 268.7 832 236.3 768 236.3C704 236.3 640 268.7 576 259.7C512 250.7 448 200.3 384 231C320 261.7 256 373.3 192 384.2C128 395 64 305 32 260L0 215Z" fill="#005fee"></path><path d="M0 573L32 598.3C64 623.7 128 674.3 192 712.2C256 750 320 775 384 793C448 811 512 822 576 802.2C640 782.3 704 731.7 768 746C832 760.3 896 839.7 960 841.5C1024 843.3 1088 767.7 1152 719C1216 670.3 1280 648.7 1344 648.7C1408 648.7 1472 670.3 1536 692C1600 713.7 1664 735.3 1728 731.8C1792 728.3 1856 699.7 1888 685.3L1920 671L1920 388L1888 409.5C1856 431 1792 474 1728 497.3C1664 520.7 1600 524.3 1536 502.8C1472 481.3 1408 434.7 1344 436.5C1280 438.3 1216 488.7 1152 506.7C1088 524.7 1024 510.3 960 490.5C896 470.7 832 445.3 768 434.5C704 423.7 640 427.3 576 425.5C512 423.7 448 416.3 384 436.2C320 456 256 503 192 481.5C128 460 64 370 32 325L0 280Z" fill="#004cbb"></path><path d="M0 876L32 890.3C64 904.7 128 933.3 192 956.7C256 980 320 998 384 1005.2C448 1012.3 512 1008.7 576 985.3C640 962 704 919 768 919C832 919 896 962 960 963.8C1024 965.7 1088 926.3 1152 910.2C1216 894 1280 901 1344 922.5C1408 944 1472 980 1536 983.7C1600 987.3 1664 958.7 1728 937.2C1792 915.7 1856 901.3 1888 894.2L1920 887L1920 669L1888 683.3C1856 697.7 1792 726.3 1728 729.8C1664 733.3 1600 711.7 1536 690C1472 668.3 1408 646.7 1344 646.7C1280 646.7 1216 668.3 1152 717C1088 765.7 1024 841.3 960 839.5C896 837.7 832 758.3 768 744C704 729.7 640 780.3 576 800.2C512 820 448 809 384 791C320 773 256 748 192 710.2C128 672.3 64 621.7 32 596.3L0 571Z" fill="#005fee"></path><path d="M0 1081L32 1081C64 1081 128 1081 192 1081C256 1081 320 1081 384 1081C448 1081 512 1081 576 1081C640 1081 704 1081 768 1081C832 1081 896 1081 960 1081C1024 1081 1088 1081 1152 1081C1216 1081 1280 1081 1344 1081C1408 1081 1472 1081 1536 1081C1600 1081 1664 1081 1728 1081C1792 1081 1856 1081 1888 1081L1920 1081L1920 885L1888 892.2C1856 899.3 1792 913.7 1728 935.2C1664 956.7 1600 985.3 1536 981.7C1472 978 1408 942 1344 920.5C1280 899 1216 892 1152 908.2C1088 924.3 1024 963.7 960 961.8C896 960 832 917 768 917C704 917 640 960 576 983.3C512 1006.7 448 1010.3 384 1003.2C320 996 256 978 192 954.7C128 931.3 64 902.7 32 888.3L0 874Z" fill="#6198ff"></path></svg>