<svg width="905" height="429" viewBox="0 0 905 429" fill="none" xmlns="http://www.w3.org/2000/svg">
<mask id="path-1-outside-1_1_125" maskUnits="userSpaceOnUse" x="372" y="140" width="533" height="289" fill="black">
<rect fill="white" x="372" y="140" width="533" height="289"/>
<path fill-rule="evenodd" clip-rule="evenodd" d="M519.525 167.953C518.689 169.137 518.002 170.868 517.117 173.264L517.093 173.329L517.068 173.393C516.039 175.959 514.251 178.724 510.713 180.697C507.375 182.557 502.953 183.445 497.146 183.445C489.964 183.445 483.904 181.753 477.806 180.05C476.807 179.771 475.806 179.492 474.8 179.22C467.568 177.264 459.075 175.341 446.289 175.341C419.913 175.341 399 196.468 399 222.297C399 242.414 412.274 252.331 423.845 252.331C430.709 252.331 432.694 248.16 432.694 247.321C432.694 246.362 432.374 245.904 432.128 245.67C431.87 245.424 431.481 245.231 431.003 245.183C430.844 245.307 430.518 245.561 429.929 246.049C428.288 247.407 425.747 249.223 421.458 249.223C416.79 249.223 412.01 246.267 408.606 241.856C405.057 237.258 402.61 230.674 402.61 222.297C402.61 196.191 422.027 177.734 446.05 177.734C455.467 177.734 464.394 179.924 472.451 181.935L472.849 182.034C480.966 184.06 488.087 185.838 494.997 185.838C504.131 185.838 511.695 183.046 516.881 179.544C519.48 177.788 521.391 175.916 522.607 174.234C523.876 172.48 524.14 171.291 524.14 170.818C524.14 169.025 523.704 168.139 523.392 167.772C523.198 167.544 522.641 167 520.783 167L520.766 167C520.521 166.999 520.199 166.999 519.525 167.953ZM511.357 162.184C513.234 159.526 516.256 157 520.783 157C524.895 157 528.516 158.362 531.009 161.293C533.382 164.083 534.14 167.606 534.14 170.818C534.14 174.158 532.673 177.379 530.711 180.093C528.696 182.88 525.877 185.536 522.478 187.831C515.665 192.432 506.157 195.838 494.997 195.838C494.255 195.838 493.513 195.821 492.771 195.788C495.656 198.038 497.132 201.347 497.132 205.137C497.132 208.556 495.921 211.561 493.495 213.878C491.258 216.014 488.311 217.252 485.327 218.065L485.306 218.071L485.284 218.076C484.822 218.198 483.884 218.706 482.963 220.544C482.05 222.367 481.373 225.133 481.373 228.732C481.373 234.109 481.986 241.59 482.704 250.36C482.811 251.658 482.919 252.984 483.028 254.336C483.864 264.675 484.716 276.294 484.716 287.36C484.716 311.201 468.723 328.109 450.109 328.109C442.825 328.109 436.975 326.85 432.767 324.33C428.372 321.698 425.77 317.629 425.77 312.861C425.77 305.276 431.65 299.281 438.649 299.281C444.524 299.281 447.263 303.834 448.458 305.822C448.515 305.917 448.569 306.006 448.619 306.089C449.355 307.296 449.689 307.798 449.983 308.096C452.056 307.974 460.151 304.587 460.151 287.837C460.151 278.787 459.397 268.646 458.619 258.199L458.613 258.119C457.84 247.734 457.048 237.055 457.048 227.302C457.048 217.289 459.953 208.816 464.527 202.729C467.939 198.188 472.436 194.816 477.391 193.435C475.218 192.934 473.072 192.398 470.964 191.871C470.652 191.793 470.34 191.715 470.029 191.637C461.85 189.596 454.064 187.734 446.05 187.734C427.573 187.734 412.61 201.691 412.61 222.297C412.61 228.696 414.46 233.074 416.522 235.746C418.728 238.604 420.873 239.223 421.458 239.223C422.421 239.223 422.746 239.013 423.552 238.345C423.623 238.286 423.71 238.211 423.811 238.122C424.794 237.261 427.18 235.171 430.77 235.171C436.877 235.171 442.694 239.801 442.694 247.321C442.694 255.538 434.173 262.331 423.845 262.331C406.288 262.331 389 247.462 389 222.297C389 190.927 414.407 165.341 446.289 165.341C460.244 165.341 469.659 167.47 477.41 169.566C478.543 169.873 479.621 170.172 480.657 170.459C486.784 172.157 491.429 173.445 497.146 173.445C502.083 173.445 504.585 172.664 505.844 171.962C506.881 171.384 507.363 170.708 507.762 169.73L507.782 169.676C508.566 167.552 509.66 164.587 511.357 162.184ZM615.071 198.821C614.696 199.655 614.21 201.167 613.645 203.803L613.627 203.886L613.606 203.969C612.246 209.401 611.083 216.78 609.885 225.15L609.226 229.76L604.58 229.429C601.826 229.233 599.227 229.207 597.34 229.204C597.159 229.4 596.923 229.698 596.664 230.11C596.507 230.361 596.361 230.622 596.229 230.881H609.168L608.464 236.503C606.33 253.549 604.922 272.153 604.922 283.785C604.922 284.212 604.924 284.633 604.929 285.05C606.894 285.309 608.571 286.267 609.802 287.281C609.751 285.715 609.725 284.073 609.725 282.355C609.725 261.904 610.93 246.643 612.643 234.92L613.268 230.643H627.857C633.422 230.643 638.298 230.071 641.632 229.22C642.277 229.055 642.823 228.89 643.279 228.733C643.173 228.59 643.06 228.448 642.941 228.307C642.666 227.983 642.399 227.723 642.17 227.529C641.725 227.727 641.088 227.996 640.413 228.225C637.933 229.064 634.344 229.68 627.857 229.68H612.897L616.846 215.664L616.856 215.631C617.924 212.031 619.316 209.003 620.342 206.806L620.486 206.498C620.948 205.507 621.278 204.8 621.513 204.219C621.561 204.102 621.597 204.006 621.625 203.929C621.481 203.357 620.881 202.202 619.123 200.86C617.617 199.71 616.084 199.07 615.071 198.821ZM645.031 227.914C645.035 227.915 645.01 227.937 644.945 227.981C644.996 227.936 645.028 227.914 645.031 227.914ZM611.449 301.528C611.102 302.063 610.738 302.583 610.374 303.1L610.333 303.159L610.29 303.217C609.62 304.117 608.917 305.029 608.179 305.955C609.032 308.101 610.014 309.843 611.075 311.248C614.362 315.601 618.941 317.394 624.992 317.394C627.121 317.394 629.144 317.069 631.07 316.479C630.332 316.603 629.579 316.669 628.812 316.669C626.466 316.669 623.793 316.421 621.198 315.296C618.49 314.122 616.211 312.146 614.455 309.268C613.186 307.186 612.191 304.629 611.449 301.528ZM652.765 313.121C651.194 314.866 649.474 316.6 647.605 318.219C641.855 323.2 634.35 327.394 624.992 327.394C616.717 327.394 608.761 324.778 603.095 317.274C602.357 316.298 601.67 315.253 601.032 314.137C594.656 320.849 586.449 328.176 575.765 336.18C572.093 356.695 566.173 374.977 558.478 388.395C550.694 401.97 540.203 412 527.25 412C511.99 412 497.896 400.345 497.896 385.789C497.896 373.938 506.057 363.649 516.194 354.618C525.415 346.403 537.371 338.298 549.342 330.184C550.127 329.651 550.913 329.119 551.697 328.586C552.43 322.549 553.011 316.39 553.369 310.105C552.61 310.853 551.814 311.613 550.986 312.374C544.201 318.602 534.067 325.964 523.191 325.964C518.376 325.964 514.174 324.967 510.631 322.947C507.074 320.92 504.472 318.028 502.617 314.699C499.016 308.235 498.135 299.948 498.135 292.126C498.135 286.329 499.209 277.234 500.775 268.213C502.339 259.208 504.475 249.809 506.752 243.344C507.631 240.601 508.765 237.948 510.727 236.045C513.015 233.827 515.715 233.265 518.177 233.265C526.075 233.265 532.728 240.168 532.728 249.466C532.728 252.097 531.865 255.053 530.983 257.722C530.53 259.093 530.008 260.566 529.473 262.076L529.418 262.23C528.858 263.811 528.275 265.458 527.695 267.196C525.373 274.149 523.177 282.312 523.177 291.411C523.177 295.96 523.87 298.818 524.743 300.369C525.403 301.541 526.058 301.903 527.25 301.903C527.523 301.903 528.708 301.682 530.858 300.5C532.853 299.402 535.222 297.73 537.712 295.547C542.704 291.169 547.81 285.066 551.174 278.246C555.39 269.604 558.337 257.181 558.786 248.752C558.933 245.331 559.732 242.078 561.456 239.521C563.281 236.814 566.166 234.933 569.75 234.933C578.354 234.933 585.017 242.806 585.017 252.326C585.017 256.053 584.009 260.79 583.022 265.433C582.854 266.224 582.687 267.011 582.525 267.791C581.34 273.498 580.241 279.566 580.241 285.692C580.241 293.234 579.948 300.686 579.359 307.986C585.956 301.956 591.255 296.001 595.093 291.063L595.121 291.025C595.128 291.014 595.136 291.003 595.143 290.992C594.996 288.706 594.922 286.305 594.922 283.785C594.922 272.896 596.082 256.55 597.87 240.881H594.908C592.66 240.881 589.921 240.471 587.883 238.437C585.802 236.359 585.61 233.738 585.61 232.306C585.61 230.895 586.023 229.468 586.415 228.406C586.849 227.229 587.456 225.97 588.197 224.791C588.923 223.635 589.894 222.37 591.122 221.339C592.314 220.338 594.181 219.203 596.579 219.203H596.609C597.628 219.203 599.026 219.203 600.642 219.241C601.626 212.65 602.664 206.521 603.885 201.622C604.606 198.281 605.452 195.322 606.777 193.134C607.49 191.955 608.467 190.785 609.839 189.93C611.261 189.044 612.785 188.697 614.248 188.697C617.98 188.697 622.129 190.574 625.19 192.911C628.18 195.193 631.663 199.108 631.663 204.184C631.663 205.73 631.104 207.177 630.784 207.969C630.443 208.812 629.992 209.775 629.562 210.695C629.509 210.809 629.456 210.923 629.404 211.035C628.403 213.179 627.293 215.622 626.452 218.444L626.104 219.68H627.857C633.786 219.68 636.166 219.105 637.208 218.752C637.613 218.615 637.808 218.526 638.122 218.382C638.295 218.303 638.505 218.207 638.805 218.077C639.675 217.702 640.839 217.297 642.422 217.297C644.478 217.297 646.203 218.173 647.33 218.918C648.55 219.723 649.647 220.757 650.558 221.828C652.187 223.743 654.107 226.848 654.107 230.161C654.107 233.692 651.461 235.722 650.04 236.591C648.354 237.622 646.251 238.361 644.106 238.909C639.741 240.023 633.991 240.643 627.857 240.643H621.959C620.635 251.23 619.725 264.755 619.725 282.355C619.725 295.139 621.265 301.227 622.993 304.061C623.745 305.294 624.481 305.82 625.175 306.121C625.982 306.471 627.099 306.669 628.812 306.669C630.545 306.669 633.262 305.226 636.771 301.665C639.786 298.606 642.517 294.9 644.75 291.847C644.634 290.462 644.575 289.045 644.575 287.598C644.575 273.154 649.47 259.757 656.485 249.903C663.335 240.279 673.002 233.026 683.002 233.026C689.2 233.026 694.537 234.503 698.239 238.337C701.91 242.139 703.044 247.305 703.044 252.564C703.044 264.105 696.993 275.146 690.358 283.717C684.863 290.818 678.563 296.743 673.734 300.518C674.414 302.014 675.397 303.184 676.66 304.088C678.722 305.564 682.014 306.669 687.061 306.669C698.368 306.669 706.322 297.411 710.932 291.12L710.999 291.025C711.186 290.758 711.388 290.47 711.603 290.171C711.55 289.249 711.522 288.312 711.522 287.36C711.522 271.702 715.344 258.307 722.023 248.673C728.745 238.978 738.464 233.026 749.71 233.026C758.75 233.026 765.22 236.704 769.274 242.166C773.163 247.404 774.528 253.852 774.528 259.237C774.528 263.355 773.5 267.238 771.15 270.206C768.708 273.29 765.155 274.962 761.171 274.962C757.891 274.962 754.848 273.723 752.591 271.806C750.369 269.918 748.531 267.014 748.531 263.527C748.531 260.561 749.651 258.438 750.289 257.228L750.302 257.203C750.651 256.541 750.78 256.292 750.872 256.052C750.905 255.964 750.915 255.922 750.917 255.911C750.918 255.904 750.918 255.904 750.918 255.901C750.918 255.722 750.885 255.445 750.786 255.137C750.689 254.832 750.556 254.582 750.42 254.404C750.291 254.235 750.177 254.15 750.087 254.104C750.011 254.064 749.836 253.989 749.472 253.989C749.28 253.989 748.317 254.141 746.721 255.457C745.202 256.71 743.464 258.742 741.815 261.628C738.531 267.377 735.848 276.099 735.848 287.36C735.848 295.095 737.884 299.995 740.741 302.952C743.578 305.888 747.912 307.623 754.008 307.623C764.202 307.623 770.897 300.602 775.644 294.441C776.37 276.627 782.36 261.762 790.212 251.09C798.373 240 809.286 232.55 819.011 232.55C828.148 232.55 833.97 236.416 837.425 240.747C837.584 240.947 837.737 241.146 837.885 241.345C840.259 238.957 843.973 236.125 848.618 236.125C852.066 236.125 855.052 237.515 857.054 240.058C858.928 242.438 859.587 245.37 859.587 248.036C859.587 250.777 858.444 253.051 857.53 254.68C857.073 255.494 856.676 256.15 856.291 256.789C855.72 257.735 855.173 258.641 854.49 259.958C852.569 263.668 850.514 269.14 850.514 278.542C850.514 286.778 850.827 294.067 852 299.206C852.591 301.791 853.298 303.348 853.921 304.163C854.379 304.763 854.594 304.763 854.809 304.763L854.826 304.763C856.98 304.763 859.276 303.547 861.971 300.751C864.052 298.592 865.835 296.088 867.669 293.509C868.233 292.718 868.801 291.919 869.384 291.121L869.452 291.025C870.192 289.968 871.165 288.58 872.288 287.503C873.617 286.231 875.567 284.982 878.225 284.982C881.137 284.982 883.528 286.602 884.95 288.022C886.372 289.44 888 291.83 888 294.748C888 298.4 886.342 300.768 884.706 303.1L884.692 303.12L884.679 303.139C884.502 303.386 884.322 303.639 884.137 303.897C881.284 307.894 877.471 313.235 872.771 317.619C867.736 322.316 861.139 326.441 852.916 326.441C839.647 326.441 833.014 317.086 829.933 309.198C829.493 308.072 829.114 306.951 828.785 305.858C827.527 307.427 826.13 309.082 824.622 310.741C821.281 314.42 817.275 318.251 812.902 321.194C808.581 324.103 803.463 326.441 798 326.441C790.301 326.441 784.636 322.491 781.021 317.209C773.986 323.214 764.352 328.347 751.382 328.347C739.445 328.347 726.846 322.583 719.084 311.841C711.799 319.41 700.715 327.156 684.673 327.156C673.497 327.156 663.41 323.666 656.078 316.732C654.888 315.607 653.783 314.402 652.765 313.121ZM696.295 315.249C693.457 316.142 690.379 316.669 687.061 316.669C680.648 316.669 675.105 315.272 670.84 312.22C666.482 309.101 663.95 304.602 663.036 299.432L662.986 299.145C662.355 300.6 661.476 301.855 660.602 303.1L660.589 303.12L660.575 303.139C660.155 303.727 659.707 304.351 659.233 305.006C660.318 306.672 661.566 308.159 662.949 309.466C668.092 314.33 675.555 317.156 684.673 317.156C688.976 317.156 692.835 316.444 696.295 315.249ZM654.638 284.999C657.14 285.163 659.219 286.494 660.572 287.757V285.692C660.572 276.181 663.516 266.263 667.123 258.743C668.932 254.972 671.005 251.598 673.14 249.079C674.203 247.824 675.391 246.651 676.686 245.753C677.92 244.898 679.689 243.989 681.808 243.989C683.802 243.989 686.25 244.571 688.067 246.671C689.754 248.622 690.151 251.045 690.151 253.041C690.151 261.69 686.488 269.71 682.159 275.965C677.829 282.222 672.466 287.249 668.244 289.918L663.658 292.817C663.809 293.429 663.896 294.074 663.896 294.748C663.896 294.932 663.892 295.113 663.884 295.29L665.14 294.432C669.246 291.628 676.384 285.435 682.45 277.597C688.59 269.664 693.044 260.805 693.044 252.564C693.044 248.528 692.149 246.426 691.045 245.283C689.972 244.171 687.788 243.026 683.002 243.026C677.721 243.026 670.674 247.213 664.632 255.702C659.171 263.373 655.178 273.745 654.638 284.999ZM725.772 303.769C731.369 313.276 741.645 318.347 751.382 318.347C756.508 318.347 760.977 317.322 764.885 315.663C761.64 316.88 758.023 317.623 754.008 317.623C746.017 317.623 738.771 315.305 733.549 309.9C731.052 307.315 729.177 304.188 727.903 300.592C727.398 301.468 726.824 302.286 726.253 303.1L726.239 303.12L726.225 303.139C726.078 303.345 725.927 303.555 725.772 303.769ZM725.848 287.422C725.848 287.401 725.848 287.381 725.848 287.36C725.848 274.55 728.895 264.086 733.132 256.668C735.244 252.97 737.714 249.923 740.359 247.742C742.927 245.625 746.082 243.989 749.472 243.989C753.442 243.989 756.472 245.848 758.373 248.341C760.149 250.672 760.918 253.493 760.918 255.901C760.918 258.567 759.816 260.62 759.263 261.65C759.221 261.729 759.182 261.801 759.147 261.867C758.608 262.89 758.535 263.159 758.531 263.492C758.54 263.522 758.609 263.798 759.066 264.185C759.615 264.652 760.392 264.962 761.171 264.962C762.201 264.962 762.827 264.608 763.31 263.998C763.884 263.272 764.528 261.793 764.528 259.237C764.528 255.328 763.505 251.17 761.245 248.127C759.151 245.306 755.712 243.026 749.71 243.026C742.333 243.026 735.458 246.846 730.241 254.37C725.256 261.562 721.886 272.067 721.55 285.183C723.283 285.575 724.756 286.487 725.848 287.422ZM786.678 284.986C786.77 284.983 786.863 284.982 786.957 284.982C788.391 284.982 789.698 285.374 790.825 285.942C792.317 275.021 796.071 265.757 800.56 258.722C803.47 254.162 806.751 250.442 810.035 247.806C813.16 245.296 816.908 243.274 820.683 243.274C822.949 243.274 825.155 243.759 827.118 244.944C828.186 245.589 829.081 246.381 829.827 247.266C829.756 247.172 829.683 247.078 829.608 246.983C827.929 244.879 824.917 242.55 819.011 242.55C813.933 242.55 805.626 247.016 798.267 257.017C793.03 264.134 788.643 273.619 786.678 284.986ZM833.373 257.32C833.513 258.819 833.562 260.347 833.562 261.859C833.562 264.85 832.375 267.205 831.694 268.559C831.661 268.623 831.63 268.686 831.6 268.746C830.831 270.281 830.698 270.708 830.697 271.147C830.742 271.221 830.856 271.38 831.178 271.758C831.22 271.808 831.273 271.868 831.335 271.938C832.066 272.763 834.039 274.989 834.039 278.304C834.039 279.401 833.699 280.373 833.524 280.83L836.238 276.45L836.664 293.182L836.664 293.188L836.664 293.191L836.665 293.213C836.666 293.246 836.669 293.304 836.673 293.385C836.681 293.548 836.696 293.804 836.722 294.14C836.774 294.812 836.87 295.795 837.045 296.984C837.399 299.387 838.056 302.508 839.248 305.56C841.659 311.734 845.651 316.441 852.916 316.441C856.877 316.441 860.547 314.778 864.071 311.941C861.454 313.598 858.378 314.763 854.826 314.763C850.988 314.763 848.009 312.899 845.972 310.231C844.087 307.762 842.974 304.597 842.251 301.432C840.798 295.071 840.514 286.75 840.514 278.542C840.514 267.448 842.996 260.407 845.611 255.359C846.383 253.868 847.333 252.278 848.036 251.099C848.36 250.558 848.631 250.104 848.809 249.786C849.596 248.383 849.587 248.036 849.587 248.036C849.587 246.888 849.292 246.365 849.196 246.243C849.168 246.207 849.158 246.203 849.151 246.2L849.148 246.199C849.134 246.192 848.988 246.125 848.618 246.125C847.845 246.125 846.275 246.895 844.267 249.154C842.661 250.96 841.58 252.81 841.411 253.099C841.392 253.132 841.384 253.145 841.389 253.135L835.346 265.199L833.373 257.32ZM804.728 314.463C804.035 314.649 803.3 314.763 802.537 314.763C800.172 314.763 797.932 314.157 796.006 312.816C794.115 311.5 792.865 309.712 792.041 307.89C791.767 307.282 791.53 306.649 791.326 305.996C790.413 307.212 789.393 308.517 788.258 309.864C788.496 310.319 788.749 310.757 789.018 311.175C791.159 314.514 794.068 316.441 798 316.441C799.985 316.441 802.246 315.783 804.728 314.463ZM566.65 330.489L568.135 319.125C569.537 308.39 570.241 297.167 570.241 285.692C570.241 278.471 571.531 271.55 572.734 265.758C572.92 264.858 573.102 263.998 573.275 263.177C574.282 258.394 575.017 254.908 575.017 252.326C575.017 247.189 571.802 245.031 569.881 244.936C569.846 244.975 569.801 245.031 569.747 245.112C569.387 245.646 568.872 246.909 568.776 249.198L568.775 249.225L568.774 249.253C568.263 258.933 565.007 272.703 560.156 282.642L560.152 282.65L560.148 282.659C556.11 290.85 550.115 297.971 544.305 303.065C541.393 305.619 538.435 307.745 535.677 309.262C533.074 310.693 530.081 311.903 527.25 311.903C522.234 311.903 518.353 309.404 516.028 305.274C513.917 301.522 513.177 296.634 513.177 291.411C513.177 280.73 515.756 271.376 518.21 264.029C518.823 262.192 519.434 260.465 519.993 258.889L520.03 258.783C520.58 257.232 521.07 255.851 521.488 254.586C522.397 251.834 522.728 250.291 522.728 249.466C522.728 244.94 519.83 243.265 518.177 243.265C517.895 243.265 517.721 243.283 517.625 243.297C517.549 243.392 517.412 243.589 517.226 243.953C516.949 244.496 516.627 245.291 516.255 246.456L516.232 246.531L516.206 246.605C514.195 252.292 512.162 261.088 510.628 269.924C509.091 278.777 508.135 287.199 508.135 292.126C508.135 299.558 509.045 305.689 511.353 309.831C512.452 311.805 513.835 313.263 515.583 314.259C517.345 315.263 519.769 315.964 523.191 315.964C529.984 315.964 537.638 311.052 544.223 305.007C547.374 302.115 550.02 299.207 551.882 297.015C552.81 295.923 553.535 295.018 554.022 294.394C554.265 294.082 554.449 293.841 554.568 293.683C554.608 293.63 554.64 293.587 554.665 293.553C554.678 293.536 554.689 293.522 554.698 293.51L554.727 293.47L554.729 293.468L554.729 293.467L563.767 281.078V296.416C563.767 308.832 562.791 320.728 561.339 332.085L561.053 334.318L559.191 335.585C557.786 336.54 556.388 337.489 554.999 338.43C542.906 346.632 531.538 354.341 522.846 362.085C512.986 370.869 507.896 378.574 507.896 385.789C507.896 393.635 516.246 402 527.25 402C534.592 402 542.486 396.181 549.803 383.421C556.964 370.934 562.731 353.143 566.254 332.515L566.593 330.531L566.65 330.489ZM595.596 232.541C595.596 232.541 595.597 232.539 595.598 232.531C595.597 232.536 595.596 232.541 595.596 232.541ZM597.616 228.948C597.616 228.948 597.608 228.954 597.593 228.964C597.609 228.952 597.616 228.948 597.616 228.948ZM472.521 208.736C469.394 212.898 467.048 219.201 467.048 227.302C467.048 236.614 467.807 246.908 468.586 257.377L468.609 257.685C469.374 267.964 470.151 278.414 470.151 287.837C470.151 307.944 459.46 318.099 449.871 318.099C444.127 318.099 441.416 313.538 440.277 311.622C440.205 311.5 440.139 311.39 440.079 311.292C439.341 310.08 438.999 309.591 438.7 309.311C438.682 309.295 438.672 309.284 438.665 309.276C438.664 309.279 438.659 309.281 438.649 309.281C437.529 309.281 435.77 310.436 435.77 312.861C435.77 313.574 436.032 314.63 437.905 315.751C439.965 316.984 443.784 318.109 450.109 318.109C462.057 318.109 474.716 306.895 474.716 287.36C474.716 276.738 473.896 265.477 473.061 255.142C472.954 253.813 472.845 252.496 472.739 251.195C472.027 242.516 471.373 234.555 471.373 228.732C471.373 223.989 472.249 219.605 474.022 216.065C475.784 212.548 478.657 209.487 482.718 208.411C484.975 207.795 486.083 207.129 486.59 206.645C486.91 206.34 487.132 206.008 487.132 205.137C487.132 204.529 487.018 204.209 486.946 204.06C486.88 203.924 486.779 203.785 486.559 203.628C486.038 203.254 484.778 202.749 482.342 202.749C479.426 202.749 475.701 204.505 472.521 208.736ZM808.99 264.102C804.139 271.704 800.135 282.752 800.135 296.178C800.135 299.869 800.513 302.354 801.154 303.771C801.434 304.391 801.662 304.569 801.718 304.609C801.736 304.621 801.863 304.721 802.268 304.753C802.392 304.697 802.635 304.577 803.011 304.333C803.851 303.789 804.935 302.901 806.225 301.654C808.791 299.174 811.708 295.729 814.5 292.072C817.276 288.435 819.827 284.721 821.664 281.778C822.531 280.389 823.205 279.227 823.661 278.357C823.629 278.318 823.595 278.277 823.559 278.235C822.591 277.097 820.697 274.836 820.697 271.154C820.697 268.163 821.883 265.807 822.565 264.454C822.597 264.389 822.629 264.327 822.659 264.267C823.432 262.724 823.562 262.301 823.562 261.859C823.562 257.803 823.116 255.432 822.491 254.201C822.237 253.699 822.036 253.557 821.948 253.504C821.851 253.445 821.52 253.274 820.683 253.274C820.279 253.274 818.744 253.636 816.296 255.602C814.006 257.442 811.422 260.291 808.99 264.102ZM824.203 277.195C824.203 277.195 824.196 277.223 824.172 277.286C824.189 277.227 824.203 277.195 824.203 277.195ZM662.5 289C662.904 288.467 680.111 282.063 680.5 281.5C683.404 277.303 699.5 262 685 243.989C683.817 245.607 662.73 254.936 661.5 257.5C660.209 260.192 663.431 285.854 662.5 289ZM682.579 253.852C682.579 253.852 682.569 253.858 682.549 253.867C682.569 253.855 682.579 253.852 682.579 253.852ZM561.427 334.347L559.147 346.661C556.472 361.103 552.529 374.054 547.445 383.535C542.564 392.634 535.622 400.322 526.295 400.322C522.704 400.322 518.643 399.763 515.439 397.275C511.96 394.575 510.551 390.475 510.551 385.789C510.551 381.677 512.162 377.783 514.434 374.248C516.719 370.694 519.896 367.158 523.564 363.667C530.886 356.699 540.825 349.303 551.293 341.704L561.427 334.347ZM522.845 379.656C521.148 382.296 520.551 384.3 520.551 385.789C520.551 388.491 521.29 389.158 521.572 389.377C522.128 389.809 523.44 390.322 526.295 390.322C529.622 390.322 534.022 387.404 538.632 378.808C541.606 373.262 544.258 366.067 546.461 357.694C540.295 362.352 534.827 366.753 530.458 370.911C527.083 374.123 524.53 377.036 522.845 379.656Z"/>
</mask>
<path fill-rule="evenodd" clip-rule="evenodd" d="M519.525 167.953C518.689 169.137 518.002 170.868 517.117 173.264L517.093 173.329L517.068 173.393C516.039 175.959 514.251 178.724 510.713 180.697C507.375 182.557 502.953 183.445 497.146 183.445C489.964 183.445 483.904 181.753 477.806 180.05C476.807 179.771 475.806 179.492 474.8 179.22C467.568 177.264 459.075 175.341 446.289 175.341C419.913 175.341 399 196.468 399 222.297C399 242.414 412.274 252.331 423.845 252.331C430.709 252.331 432.694 248.16 432.694 247.321C432.694 246.362 432.374 245.904 432.128 245.67C431.87 245.424 431.481 245.231 431.003 245.183C430.844 245.307 430.518 245.561 429.929 246.049C428.288 247.407 425.747 249.223 421.458 249.223C416.79 249.223 412.01 246.267 408.606 241.856C405.057 237.258 402.61 230.674 402.61 222.297C402.61 196.191 422.027 177.734 446.05 177.734C455.467 177.734 464.394 179.924 472.451 181.935L472.849 182.034C480.966 184.06 488.087 185.838 494.997 185.838C504.131 185.838 511.695 183.046 516.881 179.544C519.48 177.788 521.391 175.916 522.607 174.234C523.876 172.48 524.14 171.291 524.14 170.818C524.14 169.025 523.704 168.139 523.392 167.772C523.198 167.544 522.641 167 520.783 167L520.766 167C520.521 166.999 520.199 166.999 519.525 167.953ZM511.357 162.184C513.234 159.526 516.256 157 520.783 157C524.895 157 528.516 158.362 531.009 161.293C533.382 164.083 534.14 167.606 534.14 170.818C534.14 174.158 532.673 177.379 530.711 180.093C528.696 182.88 525.877 185.536 522.478 187.831C515.665 192.432 506.157 195.838 494.997 195.838C494.255 195.838 493.513 195.821 492.771 195.788C495.656 198.038 497.132 201.347 497.132 205.137C497.132 208.556 495.921 211.561 493.495 213.878C491.258 216.014 488.311 217.252 485.327 218.065L485.306 218.071L485.284 218.076C484.822 218.198 483.884 218.706 482.963 220.544C482.05 222.367 481.373 225.133 481.373 228.732C481.373 234.109 481.986 241.59 482.704 250.36C482.811 251.658 482.919 252.984 483.028 254.336C483.864 264.675 484.716 276.294 484.716 287.36C484.716 311.201 468.723 328.109 450.109 328.109C442.825 328.109 436.975 326.85 432.767 324.33C428.372 321.698 425.77 317.629 425.77 312.861C425.77 305.276 431.65 299.281 438.649 299.281C444.524 299.281 447.263 303.834 448.458 305.822C448.515 305.917 448.569 306.006 448.619 306.089C449.355 307.296 449.689 307.798 449.983 308.096C452.056 307.974 460.151 304.587 460.151 287.837C460.151 278.787 459.397 268.646 458.619 258.199L458.613 258.119C457.84 247.734 457.048 237.055 457.048 227.302C457.048 217.289 459.953 208.816 464.527 202.729C467.939 198.188 472.436 194.816 477.391 193.435C475.218 192.934 473.072 192.398 470.964 191.871C470.652 191.793 470.34 191.715 470.029 191.637C461.85 189.596 454.064 187.734 446.05 187.734C427.573 187.734 412.61 201.691 412.61 222.297C412.61 228.696 414.46 233.074 416.522 235.746C418.728 238.604 420.873 239.223 421.458 239.223C422.421 239.223 422.746 239.013 423.552 238.345C423.623 238.286 423.71 238.211 423.811 238.122C424.794 237.261 427.18 235.171 430.77 235.171C436.877 235.171 442.694 239.801 442.694 247.321C442.694 255.538 434.173 262.331 423.845 262.331C406.288 262.331 389 247.462 389 222.297C389 190.927 414.407 165.341 446.289 165.341C460.244 165.341 469.659 167.47 477.41 169.566C478.543 169.873 479.621 170.172 480.657 170.459C486.784 172.157 491.429 173.445 497.146 173.445C502.083 173.445 504.585 172.664 505.844 171.962C506.881 171.384 507.363 170.708 507.762 169.73L507.782 169.676C508.566 167.552 509.66 164.587 511.357 162.184ZM615.071 198.821C614.696 199.655 614.21 201.167 613.645 203.803L613.627 203.886L613.606 203.969C612.246 209.401 611.083 216.78 609.885 225.15L609.226 229.76L604.58 229.429C601.826 229.233 599.227 229.207 597.34 229.204C597.159 229.4 596.923 229.698 596.664 230.11C596.507 230.361 596.361 230.622 596.229 230.881H609.168L608.464 236.503C606.33 253.549 604.922 272.153 604.922 283.785C604.922 284.212 604.924 284.633 604.929 285.05C606.894 285.309 608.571 286.267 609.802 287.281C609.751 285.715 609.725 284.073 609.725 282.355C609.725 261.904 610.93 246.643 612.643 234.92L613.268 230.643H627.857C633.422 230.643 638.298 230.071 641.632 229.22C642.277 229.055 642.823 228.89 643.279 228.733C643.173 228.59 643.06 228.448 642.941 228.307C642.666 227.983 642.399 227.723 642.17 227.529C641.725 227.727 641.088 227.996 640.413 228.225C637.933 229.064 634.344 229.68 627.857 229.68H612.897L616.846 215.664L616.856 215.631C617.924 212.031 619.316 209.003 620.342 206.806L620.486 206.498C620.948 205.507 621.278 204.8 621.513 204.219C621.561 204.102 621.597 204.006 621.625 203.929C621.481 203.357 620.881 202.202 619.123 200.86C617.617 199.71 616.084 199.07 615.071 198.821ZM645.031 227.914C645.035 227.915 645.01 227.937 644.945 227.981C644.996 227.936 645.028 227.914 645.031 227.914ZM611.449 301.528C611.102 302.063 610.738 302.583 610.374 303.1L610.333 303.159L610.29 303.217C609.62 304.117 608.917 305.029 608.179 305.955C609.032 308.101 610.014 309.843 611.075 311.248C614.362 315.601 618.941 317.394 624.992 317.394C627.121 317.394 629.144 317.069 631.07 316.479C630.332 316.603 629.579 316.669 628.812 316.669C626.466 316.669 623.793 316.421 621.198 315.296C618.49 314.122 616.211 312.146 614.455 309.268C613.186 307.186 612.191 304.629 611.449 301.528ZM652.765 313.121C651.194 314.866 649.474 316.6 647.605 318.219C641.855 323.2 634.35 327.394 624.992 327.394C616.717 327.394 608.761 324.778 603.095 317.274C602.357 316.298 601.67 315.253 601.032 314.137C594.656 320.849 586.449 328.176 575.765 336.18C572.093 356.695 566.173 374.977 558.478 388.395C550.694 401.97 540.203 412 527.25 412C511.99 412 497.896 400.345 497.896 385.789C497.896 373.938 506.057 363.649 516.194 354.618C525.415 346.403 537.371 338.298 549.342 330.184C550.127 329.651 550.913 329.119 551.697 328.586C552.43 322.549 553.011 316.39 553.369 310.105C552.61 310.853 551.814 311.613 550.986 312.374C544.201 318.602 534.067 325.964 523.191 325.964C518.376 325.964 514.174 324.967 510.631 322.947C507.074 320.92 504.472 318.028 502.617 314.699C499.016 308.235 498.135 299.948 498.135 292.126C498.135 286.329 499.209 277.234 500.775 268.213C502.339 259.208 504.475 249.809 506.752 243.344C507.631 240.601 508.765 237.948 510.727 236.045C513.015 233.827 515.715 233.265 518.177 233.265C526.075 233.265 532.728 240.168 532.728 249.466C532.728 252.097 531.865 255.053 530.983 257.722C530.53 259.093 530.008 260.566 529.473 262.076L529.418 262.23C528.858 263.811 528.275 265.458 527.695 267.196C525.373 274.149 523.177 282.312 523.177 291.411C523.177 295.96 523.87 298.818 524.743 300.369C525.403 301.541 526.058 301.903 527.25 301.903C527.523 301.903 528.708 301.682 530.858 300.5C532.853 299.402 535.222 297.73 537.712 295.547C542.704 291.169 547.81 285.066 551.174 278.246C555.39 269.604 558.337 257.181 558.786 248.752C558.933 245.331 559.732 242.078 561.456 239.521C563.281 236.814 566.166 234.933 569.75 234.933C578.354 234.933 585.017 242.806 585.017 252.326C585.017 256.053 584.009 260.79 583.022 265.433C582.854 266.224 582.687 267.011 582.525 267.791C581.34 273.498 580.241 279.566 580.241 285.692C580.241 293.234 579.948 300.686 579.359 307.986C585.956 301.956 591.255 296.001 595.093 291.063L595.121 291.025C595.128 291.014 595.136 291.003 595.143 290.992C594.996 288.706 594.922 286.305 594.922 283.785C594.922 272.896 596.082 256.55 597.87 240.881H594.908C592.66 240.881 589.921 240.471 587.883 238.437C585.802 236.359 585.61 233.738 585.61 232.306C585.61 230.895 586.023 229.468 586.415 228.406C586.849 227.229 587.456 225.97 588.197 224.791C588.923 223.635 589.894 222.37 591.122 221.339C592.314 220.338 594.181 219.203 596.579 219.203H596.609C597.628 219.203 599.026 219.203 600.642 219.241C601.626 212.65 602.664 206.521 603.885 201.622C604.606 198.281 605.452 195.322 606.777 193.134C607.49 191.955 608.467 190.785 609.839 189.93C611.261 189.044 612.785 188.697 614.248 188.697C617.98 188.697 622.129 190.574 625.19 192.911C628.18 195.193 631.663 199.108 631.663 204.184C631.663 205.73 631.104 207.177 630.784 207.969C630.443 208.812 629.992 209.775 629.562 210.695C629.509 210.809 629.456 210.923 629.404 211.035C628.403 213.179 627.293 215.622 626.452 218.444L626.104 219.68H627.857C633.786 219.68 636.166 219.105 637.208 218.752C637.613 218.615 637.808 218.526 638.122 218.382C638.295 218.303 638.505 218.207 638.805 218.077C639.675 217.702 640.839 217.297 642.422 217.297C644.478 217.297 646.203 218.173 647.33 218.918C648.55 219.723 649.647 220.757 650.558 221.828C652.187 223.743 654.107 226.848 654.107 230.161C654.107 233.692 651.461 235.722 650.04 236.591C648.354 237.622 646.251 238.361 644.106 238.909C639.741 240.023 633.991 240.643 627.857 240.643H621.959C620.635 251.23 619.725 264.755 619.725 282.355C619.725 295.139 621.265 301.227 622.993 304.061C623.745 305.294 624.481 305.82 625.175 306.121C625.982 306.471 627.099 306.669 628.812 306.669C630.545 306.669 633.262 305.226 636.771 301.665C639.786 298.606 642.517 294.9 644.75 291.847C644.634 290.462 644.575 289.045 644.575 287.598C644.575 273.154 649.47 259.757 656.485 249.903C663.335 240.279 673.002 233.026 683.002 233.026C689.2 233.026 694.537 234.503 698.239 238.337C701.91 242.139 703.044 247.305 703.044 252.564C703.044 264.105 696.993 275.146 690.358 283.717C684.863 290.818 678.563 296.743 673.734 300.518C674.414 302.014 675.397 303.184 676.66 304.088C678.722 305.564 682.014 306.669 687.061 306.669C698.368 306.669 706.322 297.411 710.932 291.12L710.999 291.025C711.186 290.758 711.388 290.47 711.603 290.171C711.55 289.249 711.522 288.312 711.522 287.36C711.522 271.702 715.344 258.307 722.023 248.673C728.745 238.978 738.464 233.026 749.71 233.026C758.75 233.026 765.22 236.704 769.274 242.166C773.163 247.404 774.528 253.852 774.528 259.237C774.528 263.355 773.5 267.238 771.15 270.206C768.708 273.29 765.155 274.962 761.171 274.962C757.891 274.962 754.848 273.723 752.591 271.806C750.369 269.918 748.531 267.014 748.531 263.527C748.531 260.561 749.651 258.438 750.289 257.228L750.302 257.203C750.651 256.541 750.78 256.292 750.872 256.052C750.905 255.964 750.915 255.922 750.917 255.911C750.918 255.904 750.918 255.904 750.918 255.901C750.918 255.722 750.885 255.445 750.786 255.137C750.689 254.832 750.556 254.582 750.42 254.404C750.291 254.235 750.177 254.15 750.087 254.104C750.011 254.064 749.836 253.989 749.472 253.989C749.28 253.989 748.317 254.141 746.721 255.457C745.202 256.71 743.464 258.742 741.815 261.628C738.531 267.377 735.848 276.099 735.848 287.36C735.848 295.095 737.884 299.995 740.741 302.952C743.578 305.888 747.912 307.623 754.008 307.623C764.202 307.623 770.897 300.602 775.644 294.441C776.37 276.627 782.36 261.762 790.212 251.09C798.373 240 809.286 232.55 819.011 232.55C828.148 232.55 833.97 236.416 837.425 240.747C837.584 240.947 837.737 241.146 837.885 241.345C840.259 238.957 843.973 236.125 848.618 236.125C852.066 236.125 855.052 237.515 857.054 240.058C858.928 242.438 859.587 245.37 859.587 248.036C859.587 250.777 858.444 253.051 857.53 254.68C857.073 255.494 856.676 256.15 856.291 256.789C855.72 257.735 855.173 258.641 854.49 259.958C852.569 263.668 850.514 269.14 850.514 278.542C850.514 286.778 850.827 294.067 852 299.206C852.591 301.791 853.298 303.348 853.921 304.163C854.379 304.763 854.594 304.763 854.809 304.763L854.826 304.763C856.98 304.763 859.276 303.547 861.971 300.751C864.052 298.592 865.835 296.088 867.669 293.509C868.233 292.718 868.801 291.919 869.384 291.121L869.452 291.025C870.192 289.968 871.165 288.58 872.288 287.503C873.617 286.231 875.567 284.982 878.225 284.982C881.137 284.982 883.528 286.602 884.95 288.022C886.372 289.44 888 291.83 888 294.748C888 298.4 886.342 300.768 884.706 303.1L884.692 303.12L884.679 303.139C884.502 303.386 884.322 303.639 884.137 303.897C881.284 307.894 877.471 313.235 872.771 317.619C867.736 322.316 861.139 326.441 852.916 326.441C839.647 326.441 833.014 317.086 829.933 309.198C829.493 308.072 829.114 306.951 828.785 305.858C827.527 307.427 826.13 309.082 824.622 310.741C821.281 314.42 817.275 318.251 812.902 321.194C808.581 324.103 803.463 326.441 798 326.441C790.301 326.441 784.636 322.491 781.021 317.209C773.986 323.214 764.352 328.347 751.382 328.347C739.445 328.347 726.846 322.583 719.084 311.841C711.799 319.41 700.715 327.156 684.673 327.156C673.497 327.156 663.41 323.666 656.078 316.732C654.888 315.607 653.783 314.402 652.765 313.121ZM696.295 315.249C693.457 316.142 690.379 316.669 687.061 316.669C680.648 316.669 675.105 315.272 670.84 312.22C666.482 309.101 663.95 304.602 663.036 299.432L662.986 299.145C662.355 300.6 661.476 301.855 660.602 303.1L660.589 303.12L660.575 303.139C660.155 303.727 659.707 304.351 659.233 305.006C660.318 306.672 661.566 308.159 662.949 309.466C668.092 314.33 675.555 317.156 684.673 317.156C688.976 317.156 692.835 316.444 696.295 315.249ZM654.638 284.999C657.14 285.163 659.219 286.494 660.572 287.757V285.692C660.572 276.181 663.516 266.263 667.123 258.743C668.932 254.972 671.005 251.598 673.14 249.079C674.203 247.824 675.391 246.651 676.686 245.753C677.92 244.898 679.689 243.989 681.808 243.989C683.802 243.989 686.25 244.571 688.067 246.671C689.754 248.622 690.151 251.045 690.151 253.041C690.151 261.69 686.488 269.71 682.159 275.965C677.829 282.222 672.466 287.249 668.244 289.918L663.658 292.817C663.809 293.429 663.896 294.074 663.896 294.748C663.896 294.932 663.892 295.113 663.884 295.29L665.14 294.432C669.246 291.628 676.384 285.435 682.45 277.597C688.59 269.664 693.044 260.805 693.044 252.564C693.044 248.528 692.149 246.426 691.045 245.283C689.972 244.171 687.788 243.026 683.002 243.026C677.721 243.026 670.674 247.213 664.632 255.702C659.171 263.373 655.178 273.745 654.638 284.999ZM725.772 303.769C731.369 313.276 741.645 318.347 751.382 318.347C756.508 318.347 760.977 317.322 764.885 315.663C761.64 316.88 758.023 317.623 754.008 317.623C746.017 317.623 738.771 315.305 733.549 309.9C731.052 307.315 729.177 304.188 727.903 300.592C727.398 301.468 726.824 302.286 726.253 303.1L726.239 303.12L726.225 303.139C726.078 303.345 725.927 303.555 725.772 303.769ZM725.848 287.422C725.848 287.401 725.848 287.381 725.848 287.36C725.848 274.55 728.895 264.086 733.132 256.668C735.244 252.97 737.714 249.923 740.359 247.742C742.927 245.625 746.082 243.989 749.472 243.989C753.442 243.989 756.472 245.848 758.373 248.341C760.149 250.672 760.918 253.493 760.918 255.901C760.918 258.567 759.816 260.62 759.263 261.65C759.221 261.729 759.182 261.801 759.147 261.867C758.608 262.89 758.535 263.159 758.531 263.492C758.54 263.522 758.609 263.798 759.066 264.185C759.615 264.652 760.392 264.962 761.171 264.962C762.201 264.962 762.827 264.608 763.31 263.998C763.884 263.272 764.528 261.793 764.528 259.237C764.528 255.328 763.505 251.17 761.245 248.127C759.151 245.306 755.712 243.026 749.71 243.026C742.333 243.026 735.458 246.846 730.241 254.37C725.256 261.562 721.886 272.067 721.55 285.183C723.283 285.575 724.756 286.487 725.848 287.422ZM786.678 284.986C786.77 284.983 786.863 284.982 786.957 284.982C788.391 284.982 789.698 285.374 790.825 285.942C792.317 275.021 796.071 265.757 800.56 258.722C803.47 254.162 806.751 250.442 810.035 247.806C813.16 245.296 816.908 243.274 820.683 243.274C822.949 243.274 825.155 243.759 827.118 244.944C828.186 245.589 829.081 246.381 829.827 247.266C829.756 247.172 829.683 247.078 829.608 246.983C827.929 244.879 824.917 242.55 819.011 242.55C813.933 242.55 805.626 247.016 798.267 257.017C793.03 264.134 788.643 273.619 786.678 284.986ZM833.373 257.32C833.513 258.819 833.562 260.347 833.562 261.859C833.562 264.85 832.375 267.205 831.694 268.559C831.661 268.623 831.63 268.686 831.6 268.746C830.831 270.281 830.698 270.708 830.697 271.147C830.742 271.221 830.856 271.38 831.178 271.758C831.22 271.808 831.273 271.868 831.335 271.938C832.066 272.763 834.039 274.989 834.039 278.304C834.039 279.401 833.699 280.373 833.524 280.83L836.238 276.45L836.664 293.182L836.664 293.188L836.664 293.191L836.665 293.213C836.666 293.246 836.669 293.304 836.673 293.385C836.681 293.548 836.696 293.804 836.722 294.14C836.774 294.812 836.87 295.795 837.045 296.984C837.399 299.387 838.056 302.508 839.248 305.56C841.659 311.734 845.651 316.441 852.916 316.441C856.877 316.441 860.547 314.778 864.071 311.941C861.454 313.598 858.378 314.763 854.826 314.763C850.988 314.763 848.009 312.899 845.972 310.231C844.087 307.762 842.974 304.597 842.251 301.432C840.798 295.071 840.514 286.75 840.514 278.542C840.514 267.448 842.996 260.407 845.611 255.359C846.383 253.868 847.333 252.278 848.036 251.099C848.36 250.558 848.631 250.104 848.809 249.786C849.596 248.383 849.587 248.036 849.587 248.036C849.587 246.888 849.292 246.365 849.196 246.243C849.168 246.207 849.158 246.203 849.151 246.2L849.148 246.199C849.134 246.192 848.988 246.125 848.618 246.125C847.845 246.125 846.275 246.895 844.267 249.154C842.661 250.96 841.58 252.81 841.411 253.099C841.392 253.132 841.384 253.145 841.389 253.135L835.346 265.199L833.373 257.32ZM804.728 314.463C804.035 314.649 803.3 314.763 802.537 314.763C800.172 314.763 797.932 314.157 796.006 312.816C794.115 311.5 792.865 309.712 792.041 307.89C791.767 307.282 791.53 306.649 791.326 305.996C790.413 307.212 789.393 308.517 788.258 309.864C788.496 310.319 788.749 310.757 789.018 311.175C791.159 314.514 794.068 316.441 798 316.441C799.985 316.441 802.246 315.783 804.728 314.463ZM566.65 330.489L568.135 319.125C569.537 308.39 570.241 297.167 570.241 285.692C570.241 278.471 571.531 271.55 572.734 265.758C572.92 264.858 573.102 263.998 573.275 263.177C574.282 258.394 575.017 254.908 575.017 252.326C575.017 247.189 571.802 245.031 569.881 244.936C569.846 244.975 569.801 245.031 569.747 245.112C569.387 245.646 568.872 246.909 568.776 249.198L568.775 249.225L568.774 249.253C568.263 258.933 565.007 272.703 560.156 282.642L560.152 282.65L560.148 282.659C556.11 290.85 550.115 297.971 544.305 303.065C541.393 305.619 538.435 307.745 535.677 309.262C533.074 310.693 530.081 311.903 527.25 311.903C522.234 311.903 518.353 309.404 516.028 305.274C513.917 301.522 513.177 296.634 513.177 291.411C513.177 280.73 515.756 271.376 518.21 264.029C518.823 262.192 519.434 260.465 519.993 258.889L520.03 258.783C520.58 257.232 521.07 255.851 521.488 254.586C522.397 251.834 522.728 250.291 522.728 249.466C522.728 244.94 519.83 243.265 518.177 243.265C517.895 243.265 517.721 243.283 517.625 243.297C517.549 243.392 517.412 243.589 517.226 243.953C516.949 244.496 516.627 245.291 516.255 246.456L516.232 246.531L516.206 246.605C514.195 252.292 512.162 261.088 510.628 269.924C509.091 278.777 508.135 287.199 508.135 292.126C508.135 299.558 509.045 305.689 511.353 309.831C512.452 311.805 513.835 313.263 515.583 314.259C517.345 315.263 519.769 315.964 523.191 315.964C529.984 315.964 537.638 311.052 544.223 305.007C547.374 302.115 550.02 299.207 551.882 297.015C552.81 295.923 553.535 295.018 554.022 294.394C554.265 294.082 554.449 293.841 554.568 293.683C554.608 293.63 554.64 293.587 554.665 293.553C554.678 293.536 554.689 293.522 554.698 293.51L554.727 293.47L554.729 293.468L554.729 293.467L563.767 281.078V296.416C563.767 308.832 562.791 320.728 561.339 332.085L561.053 334.318L559.191 335.585C557.786 336.54 556.388 337.489 554.999 338.43C542.906 346.632 531.538 354.341 522.846 362.085C512.986 370.869 507.896 378.574 507.896 385.789C507.896 393.635 516.246 402 527.25 402C534.592 402 542.486 396.181 549.803 383.421C556.964 370.934 562.731 353.143 566.254 332.515L566.593 330.531L566.65 330.489ZM595.596 232.541C595.596 232.541 595.597 232.539 595.598 232.531C595.597 232.536 595.596 232.541 595.596 232.541ZM597.616 228.948C597.616 228.948 597.608 228.954 597.593 228.964C597.609 228.952 597.616 228.948 597.616 228.948ZM472.521 208.736C469.394 212.898 467.048 219.201 467.048 227.302C467.048 236.614 467.807 246.908 468.586 257.377L468.609 257.685C469.374 267.964 470.151 278.414 470.151 287.837C470.151 307.944 459.46 318.099 449.871 318.099C444.127 318.099 441.416 313.538 440.277 311.622C440.205 311.5 440.139 311.39 440.079 311.292C439.341 310.08 438.999 309.591 438.7 309.311C438.682 309.295 438.672 309.284 438.665 309.276C438.664 309.279 438.659 309.281 438.649 309.281C437.529 309.281 435.77 310.436 435.77 312.861C435.77 313.574 436.032 314.63 437.905 315.751C439.965 316.984 443.784 318.109 450.109 318.109C462.057 318.109 474.716 306.895 474.716 287.36C474.716 276.738 473.896 265.477 473.061 255.142C472.954 253.813 472.845 252.496 472.739 251.195C472.027 242.516 471.373 234.555 471.373 228.732C471.373 223.989 472.249 219.605 474.022 216.065C475.784 212.548 478.657 209.487 482.718 208.411C484.975 207.795 486.083 207.129 486.59 206.645C486.91 206.34 487.132 206.008 487.132 205.137C487.132 204.529 487.018 204.209 486.946 204.06C486.88 203.924 486.779 203.785 486.559 203.628C486.038 203.254 484.778 202.749 482.342 202.749C479.426 202.749 475.701 204.505 472.521 208.736ZM808.99 264.102C804.139 271.704 800.135 282.752 800.135 296.178C800.135 299.869 800.513 302.354 801.154 303.771C801.434 304.391 801.662 304.569 801.718 304.609C801.736 304.621 801.863 304.721 802.268 304.753C802.392 304.697 802.635 304.577 803.011 304.333C803.851 303.789 804.935 302.901 806.225 301.654C808.791 299.174 811.708 295.729 814.5 292.072C817.276 288.435 819.827 284.721 821.664 281.778C822.531 280.389 823.205 279.227 823.661 278.357C823.629 278.318 823.595 278.277 823.559 278.235C822.591 277.097 820.697 274.836 820.697 271.154C820.697 268.163 821.883 265.807 822.565 264.454C822.597 264.389 822.629 264.327 822.659 264.267C823.432 262.724 823.562 262.301 823.562 261.859C823.562 257.803 823.116 255.432 822.491 254.201C822.237 253.699 822.036 253.557 821.948 253.504C821.851 253.445 821.52 253.274 820.683 253.274C820.279 253.274 818.744 253.636 816.296 255.602C814.006 257.442 811.422 260.291 808.99 264.102ZM824.203 277.195C824.203 277.195 824.196 277.223 824.172 277.286C824.189 277.227 824.203 277.195 824.203 277.195ZM662.5 289C662.904 288.467 680.111 282.063 680.5 281.5C683.404 277.303 699.5 262 685 243.989C683.817 245.607 662.73 254.936 661.5 257.5C660.209 260.192 663.431 285.854 662.5 289ZM682.579 253.852C682.579 253.852 682.569 253.858 682.549 253.867C682.569 253.855 682.579 253.852 682.579 253.852ZM561.427 334.347L559.147 346.661C556.472 361.103 552.529 374.054 547.445 383.535C542.564 392.634 535.622 400.322 526.295 400.322C522.704 400.322 518.643 399.763 515.439 397.275C511.96 394.575 510.551 390.475 510.551 385.789C510.551 381.677 512.162 377.783 514.434 374.248C516.719 370.694 519.896 367.158 523.564 363.667C530.886 356.699 540.825 349.303 551.293 341.704L561.427 334.347ZM522.845 379.656C521.148 382.296 520.551 384.3 520.551 385.789C520.551 388.491 521.29 389.158 521.572 389.377C522.128 389.809 523.44 390.322 526.295 390.322C529.622 390.322 534.022 387.404 538.632 378.808C541.606 373.262 544.258 366.067 546.461 357.694C540.295 362.352 534.827 366.753 530.458 370.911C527.083 374.123 524.53 377.036 522.845 379.656Z" fill="white"/>
<path fill-rule="evenodd" clip-rule="evenodd" d="M519.525 167.953C518.689 169.137 518.002 170.868 517.117 173.264L517.093 173.329L517.068 173.393C516.039 175.959 514.251 178.724 510.713 180.697C507.375 182.557 502.953 183.445 497.146 183.445C489.964 183.445 483.904 181.753 477.806 180.05C476.807 179.771 475.806 179.492 474.8 179.22C467.568 177.264 459.075 175.341 446.289 175.341C419.913 175.341 399 196.468 399 222.297C399 242.414 412.274 252.331 423.845 252.331C430.709 252.331 432.694 248.16 432.694 247.321C432.694 246.362 432.374 245.904 432.128 245.67C431.87 245.424 431.481 245.231 431.003 245.183C430.844 245.307 430.518 245.561 429.929 246.049C428.288 247.407 425.747 249.223 421.458 249.223C416.79 249.223 412.01 246.267 408.606 241.856C405.057 237.258 402.61 230.674 402.61 222.297C402.61 196.191 422.027 177.734 446.05 177.734C455.467 177.734 464.394 179.924 472.451 181.935L472.849 182.034C480.966 184.06 488.087 185.838 494.997 185.838C504.131 185.838 511.695 183.046 516.881 179.544C519.48 177.788 521.391 175.916 522.607 174.234C523.876 172.48 524.14 171.291 524.14 170.818C524.14 169.025 523.704 168.139 523.392 167.772C523.198 167.544 522.641 167 520.783 167L520.766 167C520.521 166.999 520.199 166.999 519.525 167.953ZM511.357 162.184C513.234 159.526 516.256 157 520.783 157C524.895 157 528.516 158.362 531.009 161.293C533.382 164.083 534.14 167.606 534.14 170.818C534.14 174.158 532.673 177.379 530.711 180.093C528.696 182.88 525.877 185.536 522.478 187.831C515.665 192.432 506.157 195.838 494.997 195.838C494.255 195.838 493.513 195.821 492.771 195.788C495.656 198.038 497.132 201.347 497.132 205.137C497.132 208.556 495.921 211.561 493.495 213.878C491.258 216.014 488.311 217.252 485.327 218.065L485.306 218.071L485.284 218.076C484.822 218.198 483.884 218.706 482.963 220.544C482.05 222.367 481.373 225.133 481.373 228.732C481.373 234.109 481.986 241.59 482.704 250.36C482.811 251.658 482.919 252.984 483.028 254.336C483.864 264.675 484.716 276.294 484.716 287.36C484.716 311.201 468.723 328.109 450.109 328.109C442.825 328.109 436.975 326.85 432.767 324.33C428.372 321.698 425.77 317.629 425.77 312.861C425.77 305.276 431.65 299.281 438.649 299.281C444.524 299.281 447.263 303.834 448.458 305.822C448.515 305.917 448.569 306.006 448.619 306.089C449.355 307.296 449.689 307.798 449.983 308.096C452.056 307.974 460.151 304.587 460.151 287.837C460.151 278.787 459.397 268.646 458.619 258.199L458.613 258.119C457.84 247.734 457.048 237.055 457.048 227.302C457.048 217.289 459.953 208.816 464.527 202.729C467.939 198.188 472.436 194.816 477.391 193.435C475.218 192.934 473.072 192.398 470.964 191.871C470.652 191.793 470.34 191.715 470.029 191.637C461.85 189.596 454.064 187.734 446.05 187.734C427.573 187.734 412.61 201.691 412.61 222.297C412.61 228.696 414.46 233.074 416.522 235.746C418.728 238.604 420.873 239.223 421.458 239.223C422.421 239.223 422.746 239.013 423.552 238.345C423.623 238.286 423.71 238.211 423.811 238.122C424.794 237.261 427.18 235.171 430.77 235.171C436.877 235.171 442.694 239.801 442.694 247.321C442.694 255.538 434.173 262.331 423.845 262.331C406.288 262.331 389 247.462 389 222.297C389 190.927 414.407 165.341 446.289 165.341C460.244 165.341 469.659 167.47 477.41 169.566C478.543 169.873 479.621 170.172 480.657 170.459C486.784 172.157 491.429 173.445 497.146 173.445C502.083 173.445 504.585 172.664 505.844 171.962C506.881 171.384 507.363 170.708 507.762 169.73L507.782 169.676C508.566 167.552 509.66 164.587 511.357 162.184ZM615.071 198.821C614.696 199.655 614.21 201.167 613.645 203.803L613.627 203.886L613.606 203.969C612.246 209.401 611.083 216.78 609.885 225.15L609.226 229.76L604.58 229.429C601.826 229.233 599.227 229.207 597.34 229.204C597.159 229.4 596.923 229.698 596.664 230.11C596.507 230.361 596.361 230.622 596.229 230.881H609.168L608.464 236.503C606.33 253.549 604.922 272.153 604.922 283.785C604.922 284.212 604.924 284.633 604.929 285.05C606.894 285.309 608.571 286.267 609.802 287.281C609.751 285.715 609.725 284.073 609.725 282.355C609.725 261.904 610.93 246.643 612.643 234.92L613.268 230.643H627.857C633.422 230.643 638.298 230.071 641.632 229.22C642.277 229.055 642.823 228.89 643.279 228.733C643.173 228.59 643.06 228.448 642.941 228.307C642.666 227.983 642.399 227.723 642.17 227.529C641.725 227.727 641.088 227.996 640.413 228.225C637.933 229.064 634.344 229.68 627.857 229.68H612.897L616.846 215.664L616.856 215.631C617.924 212.031 619.316 209.003 620.342 206.806L620.486 206.498C620.948 205.507 621.278 204.8 621.513 204.219C621.561 204.102 621.597 204.006 621.625 203.929C621.481 203.357 620.881 202.202 619.123 200.86C617.617 199.71 616.084 199.07 615.071 198.821ZM645.031 227.914C645.035 227.915 645.01 227.937 644.945 227.981C644.996 227.936 645.028 227.914 645.031 227.914ZM611.449 301.528C611.102 302.063 610.738 302.583 610.374 303.1L610.333 303.159L610.29 303.217C609.62 304.117 608.917 305.029 608.179 305.955C609.032 308.101 610.014 309.843 611.075 311.248C614.362 315.601 618.941 317.394 624.992 317.394C627.121 317.394 629.144 317.069 631.07 316.479C630.332 316.603 629.579 316.669 628.812 316.669C626.466 316.669 623.793 316.421 621.198 315.296C618.49 314.122 616.211 312.146 614.455 309.268C613.186 307.186 612.191 304.629 611.449 301.528ZM652.765 313.121C651.194 314.866 649.474 316.6 647.605 318.219C641.855 323.2 634.35 327.394 624.992 327.394C616.717 327.394 608.761 324.778 603.095 317.274C602.357 316.298 601.67 315.253 601.032 314.137C594.656 320.849 586.449 328.176 575.765 336.18C572.093 356.695 566.173 374.977 558.478 388.395C550.694 401.97 540.203 412 527.25 412C511.99 412 497.896 400.345 497.896 385.789C497.896 373.938 506.057 363.649 516.194 354.618C525.415 346.403 537.371 338.298 549.342 330.184C550.127 329.651 550.913 329.119 551.697 328.586C552.43 322.549 553.011 316.39 553.369 310.105C552.61 310.853 551.814 311.613 550.986 312.374C544.201 318.602 534.067 325.964 523.191 325.964C518.376 325.964 514.174 324.967 510.631 322.947C507.074 320.92 504.472 318.028 502.617 314.699C499.016 308.235 498.135 299.948 498.135 292.126C498.135 286.329 499.209 277.234 500.775 268.213C502.339 259.208 504.475 249.809 506.752 243.344C507.631 240.601 508.765 237.948 510.727 236.045C513.015 233.827 515.715 233.265 518.177 233.265C526.075 233.265 532.728 240.168 532.728 249.466C532.728 252.097 531.865 255.053 530.983 257.722C530.53 259.093 530.008 260.566 529.473 262.076L529.418 262.23C528.858 263.811 528.275 265.458 527.695 267.196C525.373 274.149 523.177 282.312 523.177 291.411C523.177 295.96 523.87 298.818 524.743 300.369C525.403 301.541 526.058 301.903 527.25 301.903C527.523 301.903 528.708 301.682 530.858 300.5C532.853 299.402 535.222 297.73 537.712 295.547C542.704 291.169 547.81 285.066 551.174 278.246C555.39 269.604 558.337 257.181 558.786 248.752C558.933 245.331 559.732 242.078 561.456 239.521C563.281 236.814 566.166 234.933 569.75 234.933C578.354 234.933 585.017 242.806 585.017 252.326C585.017 256.053 584.009 260.79 583.022 265.433C582.854 266.224 582.687 267.011 582.525 267.791C581.34 273.498 580.241 279.566 580.241 285.692C580.241 293.234 579.948 300.686 579.359 307.986C585.956 301.956 591.255 296.001 595.093 291.063L595.121 291.025C595.128 291.014 595.136 291.003 595.143 290.992C594.996 288.706 594.922 286.305 594.922 283.785C594.922 272.896 596.082 256.55 597.87 240.881H594.908C592.66 240.881 589.921 240.471 587.883 238.437C585.802 236.359 585.61 233.738 585.61 232.306C585.61 230.895 586.023 229.468 586.415 228.406C586.849 227.229 587.456 225.97 588.197 224.791C588.923 223.635 589.894 222.37 591.122 221.339C592.314 220.338 594.181 219.203 596.579 219.203H596.609C597.628 219.203 599.026 219.203 600.642 219.241C601.626 212.65 602.664 206.521 603.885 201.622C604.606 198.281 605.452 195.322 606.777 193.134C607.49 191.955 608.467 190.785 609.839 189.93C611.261 189.044 612.785 188.697 614.248 188.697C617.98 188.697 622.129 190.574 625.19 192.911C628.18 195.193 631.663 199.108 631.663 204.184C631.663 205.73 631.104 207.177 630.784 207.969C630.443 208.812 629.992 209.775 629.562 210.695C629.509 210.809 629.456 210.923 629.404 211.035C628.403 213.179 627.293 215.622 626.452 218.444L626.104 219.68H627.857C633.786 219.68 636.166 219.105 637.208 218.752C637.613 218.615 637.808 218.526 638.122 218.382C638.295 218.303 638.505 218.207 638.805 218.077C639.675 217.702 640.839 217.297 642.422 217.297C644.478 217.297 646.203 218.173 647.33 218.918C648.55 219.723 649.647 220.757 650.558 221.828C652.187 223.743 654.107 226.848 654.107 230.161C654.107 233.692 651.461 235.722 650.04 236.591C648.354 237.622 646.251 238.361 644.106 238.909C639.741 240.023 633.991 240.643 627.857 240.643H621.959C620.635 251.23 619.725 264.755 619.725 282.355C619.725 295.139 621.265 301.227 622.993 304.061C623.745 305.294 624.481 305.82 625.175 306.121C625.982 306.471 627.099 306.669 628.812 306.669C630.545 306.669 633.262 305.226 636.771 301.665C639.786 298.606 642.517 294.9 644.75 291.847C644.634 290.462 644.575 289.045 644.575 287.598C644.575 273.154 649.47 259.757 656.485 249.903C663.335 240.279 673.002 233.026 683.002 233.026C689.2 233.026 694.537 234.503 698.239 238.337C701.91 242.139 703.044 247.305 703.044 252.564C703.044 264.105 696.993 275.146 690.358 283.717C684.863 290.818 678.563 296.743 673.734 300.518C674.414 302.014 675.397 303.184 676.66 304.088C678.722 305.564 682.014 306.669 687.061 306.669C698.368 306.669 706.322 297.411 710.932 291.12L710.999 291.025C711.186 290.758 711.388 290.47 711.603 290.171C711.55 289.249 711.522 288.312 711.522 287.36C711.522 271.702 715.344 258.307 722.023 248.673C728.745 238.978 738.464 233.026 749.71 233.026C758.75 233.026 765.22 236.704 769.274 242.166C773.163 247.404 774.528 253.852 774.528 259.237C774.528 263.355 773.5 267.238 771.15 270.206C768.708 273.29 765.155 274.962 761.171 274.962C757.891 274.962 754.848 273.723 752.591 271.806C750.369 269.918 748.531 267.014 748.531 263.527C748.531 260.561 749.651 258.438 750.289 257.228L750.302 257.203C750.651 256.541 750.78 256.292 750.872 256.052C750.905 255.964 750.915 255.922 750.917 255.911C750.918 255.904 750.918 255.904 750.918 255.901C750.918 255.722 750.885 255.445 750.786 255.137C750.689 254.832 750.556 254.582 750.42 254.404C750.291 254.235 750.177 254.15 750.087 254.104C750.011 254.064 749.836 253.989 749.472 253.989C749.28 253.989 748.317 254.141 746.721 255.457C745.202 256.71 743.464 258.742 741.815 261.628C738.531 267.377 735.848 276.099 735.848 287.36C735.848 295.095 737.884 299.995 740.741 302.952C743.578 305.888 747.912 307.623 754.008 307.623C764.202 307.623 770.897 300.602 775.644 294.441C776.37 276.627 782.36 261.762 790.212 251.09C798.373 240 809.286 232.55 819.011 232.55C828.148 232.55 833.97 236.416 837.425 240.747C837.584 240.947 837.737 241.146 837.885 241.345C840.259 238.957 843.973 236.125 848.618 236.125C852.066 236.125 855.052 237.515 857.054 240.058C858.928 242.438 859.587 245.37 859.587 248.036C859.587 250.777 858.444 253.051 857.53 254.68C857.073 255.494 856.676 256.15 856.291 256.789C855.72 257.735 855.173 258.641 854.49 259.958C852.569 263.668 850.514 269.14 850.514 278.542C850.514 286.778 850.827 294.067 852 299.206C852.591 301.791 853.298 303.348 853.921 304.163C854.379 304.763 854.594 304.763 854.809 304.763L854.826 304.763C856.98 304.763 859.276 303.547 861.971 300.751C864.052 298.592 865.835 296.088 867.669 293.509C868.233 292.718 868.801 291.919 869.384 291.121L869.452 291.025C870.192 289.968 871.165 288.58 872.288 287.503C873.617 286.231 875.567 284.982 878.225 284.982C881.137 284.982 883.528 286.602 884.95 288.022C886.372 289.44 888 291.83 888 294.748C888 298.4 886.342 300.768 884.706 303.1L884.692 303.12L884.679 303.139C884.502 303.386 884.322 303.639 884.137 303.897C881.284 307.894 877.471 313.235 872.771 317.619C867.736 322.316 861.139 326.441 852.916 326.441C839.647 326.441 833.014 317.086 829.933 309.198C829.493 308.072 829.114 306.951 828.785 305.858C827.527 307.427 826.13 309.082 824.622 310.741C821.281 314.42 817.275 318.251 812.902 321.194C808.581 324.103 803.463 326.441 798 326.441C790.301 326.441 784.636 322.491 781.021 317.209C773.986 323.214 764.352 328.347 751.382 328.347C739.445 328.347 726.846 322.583 719.084 311.841C711.799 319.41 700.715 327.156 684.673 327.156C673.497 327.156 663.41 323.666 656.078 316.732C654.888 315.607 653.783 314.402 652.765 313.121ZM696.295 315.249C693.457 316.142 690.379 316.669 687.061 316.669C680.648 316.669 675.105 315.272 670.84 312.22C666.482 309.101 663.95 304.602 663.036 299.432L662.986 299.145C662.355 300.6 661.476 301.855 660.602 303.1L660.589 303.12L660.575 303.139C660.155 303.727 659.707 304.351 659.233 305.006C660.318 306.672 661.566 308.159 662.949 309.466C668.092 314.33 675.555 317.156 684.673 317.156C688.976 317.156 692.835 316.444 696.295 315.249ZM654.638 284.999C657.14 285.163 659.219 286.494 660.572 287.757V285.692C660.572 276.181 663.516 266.263 667.123 258.743C668.932 254.972 671.005 251.598 673.14 249.079C674.203 247.824 675.391 246.651 676.686 245.753C677.92 244.898 679.689 243.989 681.808 243.989C683.802 243.989 686.25 244.571 688.067 246.671C689.754 248.622 690.151 251.045 690.151 253.041C690.151 261.69 686.488 269.71 682.159 275.965C677.829 282.222 672.466 287.249 668.244 289.918L663.658 292.817C663.809 293.429 663.896 294.074 663.896 294.748C663.896 294.932 663.892 295.113 663.884 295.29L665.14 294.432C669.246 291.628 676.384 285.435 682.45 277.597C688.59 269.664 693.044 260.805 693.044 252.564C693.044 248.528 692.149 246.426 691.045 245.283C689.972 244.171 687.788 243.026 683.002 243.026C677.721 243.026 670.674 247.213 664.632 255.702C659.171 263.373 655.178 273.745 654.638 284.999ZM725.772 303.769C731.369 313.276 741.645 318.347 751.382 318.347C756.508 318.347 760.977 317.322 764.885 315.663C761.64 316.88 758.023 317.623 754.008 317.623C746.017 317.623 738.771 315.305 733.549 309.9C731.052 307.315 729.177 304.188 727.903 300.592C727.398 301.468 726.824 302.286 726.253 303.1L726.239 303.12L726.225 303.139C726.078 303.345 725.927 303.555 725.772 303.769ZM725.848 287.422C725.848 287.401 725.848 287.381 725.848 287.36C725.848 274.55 728.895 264.086 733.132 256.668C735.244 252.97 737.714 249.923 740.359 247.742C742.927 245.625 746.082 243.989 749.472 243.989C753.442 243.989 756.472 245.848 758.373 248.341C760.149 250.672 760.918 253.493 760.918 255.901C760.918 258.567 759.816 260.62 759.263 261.65C759.221 261.729 759.182 261.801 759.147 261.867C758.608 262.89 758.535 263.159 758.531 263.492C758.54 263.522 758.609 263.798 759.066 264.185C759.615 264.652 760.392 264.962 761.171 264.962C762.201 264.962 762.827 264.608 763.31 263.998C763.884 263.272 764.528 261.793 764.528 259.237C764.528 255.328 763.505 251.17 761.245 248.127C759.151 245.306 755.712 243.026 749.71 243.026C742.333 243.026 735.458 246.846 730.241 254.37C725.256 261.562 721.886 272.067 721.55 285.183C723.283 285.575 724.756 286.487 725.848 287.422ZM786.678 284.986C786.77 284.983 786.863 284.982 786.957 284.982C788.391 284.982 789.698 285.374 790.825 285.942C792.317 275.021 796.071 265.757 800.56 258.722C803.47 254.162 806.751 250.442 810.035 247.806C813.16 245.296 816.908 243.274 820.683 243.274C822.949 243.274 825.155 243.759 827.118 244.944C828.186 245.589 829.081 246.381 829.827 247.266C829.756 247.172 829.683 247.078 829.608 246.983C827.929 244.879 824.917 242.55 819.011 242.55C813.933 242.55 805.626 247.016 798.267 257.017C793.03 264.134 788.643 273.619 786.678 284.986ZM833.373 257.32C833.513 258.819 833.562 260.347 833.562 261.859C833.562 264.85 832.375 267.205 831.694 268.559C831.661 268.623 831.63 268.686 831.6 268.746C830.831 270.281 830.698 270.708 830.697 271.147C830.742 271.221 830.856 271.38 831.178 271.758C831.22 271.808 831.273 271.868 831.335 271.938C832.066 272.763 834.039 274.989 834.039 278.304C834.039 279.401 833.699 280.373 833.524 280.83L836.238 276.45L836.664 293.182L836.664 293.188L836.664 293.191L836.665 293.213C836.666 293.246 836.669 293.304 836.673 293.385C836.681 293.548 836.696 293.804 836.722 294.14C836.774 294.812 836.87 295.795 837.045 296.984C837.399 299.387 838.056 302.508 839.248 305.56C841.659 311.734 845.651 316.441 852.916 316.441C856.877 316.441 860.547 314.778 864.071 311.941C861.454 313.598 858.378 314.763 854.826 314.763C850.988 314.763 848.009 312.899 845.972 310.231C844.087 307.762 842.974 304.597 842.251 301.432C840.798 295.071 840.514 286.75 840.514 278.542C840.514 267.448 842.996 260.407 845.611 255.359C846.383 253.868 847.333 252.278 848.036 251.099C848.36 250.558 848.631 250.104 848.809 249.786C849.596 248.383 849.587 248.036 849.587 248.036C849.587 246.888 849.292 246.365 849.196 246.243C849.168 246.207 849.158 246.203 849.151 246.2L849.148 246.199C849.134 246.192 848.988 246.125 848.618 246.125C847.845 246.125 846.275 246.895 844.267 249.154C842.661 250.96 841.58 252.81 841.411 253.099C841.392 253.132 841.384 253.145 841.389 253.135L835.346 265.199L833.373 257.32ZM804.728 314.463C804.035 314.649 803.3 314.763 802.537 314.763C800.172 314.763 797.932 314.157 796.006 312.816C794.115 311.5 792.865 309.712 792.041 307.89C791.767 307.282 791.53 306.649 791.326 305.996C790.413 307.212 789.393 308.517 788.258 309.864C788.496 310.319 788.749 310.757 789.018 311.175C791.159 314.514 794.068 316.441 798 316.441C799.985 316.441 802.246 315.783 804.728 314.463ZM566.65 330.489L568.135 319.125C569.537 308.39 570.241 297.167 570.241 285.692C570.241 278.471 571.531 271.55 572.734 265.758C572.92 264.858 573.102 263.998 573.275 263.177C574.282 258.394 575.017 254.908 575.017 252.326C575.017 247.189 571.802 245.031 569.881 244.936C569.846 244.975 569.801 245.031 569.747 245.112C569.387 245.646 568.872 246.909 568.776 249.198L568.775 249.225L568.774 249.253C568.263 258.933 565.007 272.703 560.156 282.642L560.152 282.65L560.148 282.659C556.11 290.85 550.115 297.971 544.305 303.065C541.393 305.619 538.435 307.745 535.677 309.262C533.074 310.693 530.081 311.903 527.25 311.903C522.234 311.903 518.353 309.404 516.028 305.274C513.917 301.522 513.177 296.634 513.177 291.411C513.177 280.73 515.756 271.376 518.21 264.029C518.823 262.192 519.434 260.465 519.993 258.889L520.03 258.783C520.58 257.232 521.07 255.851 521.488 254.586C522.397 251.834 522.728 250.291 522.728 249.466C522.728 244.94 519.83 243.265 518.177 243.265C517.895 243.265 517.721 243.283 517.625 243.297C517.549 243.392 517.412 243.589 517.226 243.953C516.949 244.496 516.627 245.291 516.255 246.456L516.232 246.531L516.206 246.605C514.195 252.292 512.162 261.088 510.628 269.924C509.091 278.777 508.135 287.199 508.135 292.126C508.135 299.558 509.045 305.689 511.353 309.831C512.452 311.805 513.835 313.263 515.583 314.259C517.345 315.263 519.769 315.964 523.191 315.964C529.984 315.964 537.638 311.052 544.223 305.007C547.374 302.115 550.02 299.207 551.882 297.015C552.81 295.923 553.535 295.018 554.022 294.394C554.265 294.082 554.449 293.841 554.568 293.683C554.608 293.63 554.64 293.587 554.665 293.553C554.678 293.536 554.689 293.522 554.698 293.51L554.727 293.47L554.729 293.468L554.729 293.467L563.767 281.078V296.416C563.767 308.832 562.791 320.728 561.339 332.085L561.053 334.318L559.191 335.585C557.786 336.54 556.388 337.489 554.999 338.43C542.906 346.632 531.538 354.341 522.846 362.085C512.986 370.869 507.896 378.574 507.896 385.789C507.896 393.635 516.246 402 527.25 402C534.592 402 542.486 396.181 549.803 383.421C556.964 370.934 562.731 353.143 566.254 332.515L566.593 330.531L566.65 330.489ZM595.596 232.541C595.596 232.541 595.597 232.539 595.598 232.531C595.597 232.536 595.596 232.541 595.596 232.541ZM597.616 228.948C597.616 228.948 597.608 228.954 597.593 228.964C597.609 228.952 597.616 228.948 597.616 228.948ZM472.521 208.736C469.394 212.898 467.048 219.201 467.048 227.302C467.048 236.614 467.807 246.908 468.586 257.377L468.609 257.685C469.374 267.964 470.151 278.414 470.151 287.837C470.151 307.944 459.46 318.099 449.871 318.099C444.127 318.099 441.416 313.538 440.277 311.622C440.205 311.5 440.139 311.39 440.079 311.292C439.341 310.08 438.999 309.591 438.7 309.311C438.682 309.295 438.672 309.284 438.665 309.276C438.664 309.279 438.659 309.281 438.649 309.281C437.529 309.281 435.77 310.436 435.77 312.861C435.77 313.574 436.032 314.63 437.905 315.751C439.965 316.984 443.784 318.109 450.109 318.109C462.057 318.109 474.716 306.895 474.716 287.36C474.716 276.738 473.896 265.477 473.061 255.142C472.954 253.813 472.845 252.496 472.739 251.195C472.027 242.516 471.373 234.555 471.373 228.732C471.373 223.989 472.249 219.605 474.022 216.065C475.784 212.548 478.657 209.487 482.718 208.411C484.975 207.795 486.083 207.129 486.59 206.645C486.91 206.34 487.132 206.008 487.132 205.137C487.132 204.529 487.018 204.209 486.946 204.06C486.88 203.924 486.779 203.785 486.559 203.628C486.038 203.254 484.778 202.749 482.342 202.749C479.426 202.749 475.701 204.505 472.521 208.736ZM808.99 264.102C804.139 271.704 800.135 282.752 800.135 296.178C800.135 299.869 800.513 302.354 801.154 303.771C801.434 304.391 801.662 304.569 801.718 304.609C801.736 304.621 801.863 304.721 802.268 304.753C802.392 304.697 802.635 304.577 803.011 304.333C803.851 303.789 804.935 302.901 806.225 301.654C808.791 299.174 811.708 295.729 814.5 292.072C817.276 288.435 819.827 284.721 821.664 281.778C822.531 280.389 823.205 279.227 823.661 278.357C823.629 278.318 823.595 278.277 823.559 278.235C822.591 277.097 820.697 274.836 820.697 271.154C820.697 268.163 821.883 265.807 822.565 264.454C822.597 264.389 822.629 264.327 822.659 264.267C823.432 262.724 823.562 262.301 823.562 261.859C823.562 257.803 823.116 255.432 822.491 254.201C822.237 253.699 822.036 253.557 821.948 253.504C821.851 253.445 821.52 253.274 820.683 253.274C820.279 253.274 818.744 253.636 816.296 255.602C814.006 257.442 811.422 260.291 808.99 264.102ZM824.203 277.195C824.203 277.195 824.196 277.223 824.172 277.286C824.189 277.227 824.203 277.195 824.203 277.195ZM662.5 289C662.904 288.467 680.111 282.063 680.5 281.5C683.404 277.303 699.5 262 685 243.989C683.817 245.607 662.73 254.936 661.5 257.5C660.209 260.192 663.431 285.854 662.5 289ZM682.579 253.852C682.579 253.852 682.569 253.858 682.549 253.867C682.569 253.855 682.579 253.852 682.579 253.852ZM561.427 334.347L559.147 346.661C556.472 361.103 552.529 374.054 547.445 383.535C542.564 392.634 535.622 400.322 526.295 400.322C522.704 400.322 518.643 399.763 515.439 397.275C511.96 394.575 510.551 390.475 510.551 385.789C510.551 381.677 512.162 377.783 514.434 374.248C516.719 370.694 519.896 367.158 523.564 363.667C530.886 356.699 540.825 349.303 551.293 341.704L561.427 334.347ZM522.845 379.656C521.148 382.296 520.551 384.3 520.551 385.789C520.551 388.491 521.29 389.158 521.572 389.377C522.128 389.809 523.44 390.322 526.295 390.322C529.622 390.322 534.022 387.404 538.632 378.808C541.606 373.262 544.258 366.067 546.461 357.694C540.295 362.352 534.827 366.753 530.458 370.911C527.083 374.123 524.53 377.036 522.845 379.656Z" stroke="#1A535C" stroke-width="34" mask="url(#path-1-outside-1_1_125)"/>
<path d="M502.896 385.789C502.896 366.723 529.399 349.802 556.379 331.45C557.812 320.249 558.767 308.571 558.767 296.416C558.767 296.416 540.86 320.964 523.191 320.964C506.716 320.964 503.135 307.379 503.135 292.126C503.135 281.402 507.194 257.092 511.492 244.938C513.163 239.695 514.834 238.265 518.177 238.265C522.952 238.265 527.728 242.554 527.728 249.466C527.728 256.377 518.177 271.63 518.177 291.411C518.177 301.183 521.042 306.903 527.25 306.903C533.458 306.903 548.261 295.463 555.663 280.448C560.199 271.154 563.303 258.046 563.781 248.989C564.02 243.269 566.407 239.933 569.75 239.933C575.003 239.933 580.017 244.938 580.017 252.326C580.017 259.714 575.241 272.345 575.241 285.692C575.241 297.37 574.525 308.809 573.093 319.772C584.553 310.954 593.387 301.421 599.118 294.033C600.789 291.65 601.983 289.982 603.893 289.982C606.042 289.982 608.668 292.603 608.668 294.748C608.668 296.655 607.952 297.846 606.281 300.23C599.357 309.524 588.612 320.487 571.182 333.357C564.02 375.303 547.545 407 527.25 407C514.118 407 502.896 396.99 502.896 385.789ZM526.295 395.322C538.949 395.322 548.977 374.111 554.23 345.75C533.219 361.003 515.551 374.588 515.551 385.789C515.551 393.177 519.848 395.322 526.295 395.322Z" fill="white"/>
<path d="M624.992 322.394C610.666 322.394 599.922 313.576 599.922 283.785C599.922 271.869 601.354 253.041 603.503 235.881H594.908C591.326 235.881 590.61 234.451 590.61 232.306C590.61 230.161 593.475 224.203 596.579 224.203C598.489 224.203 601.593 224.203 604.936 224.442C606.13 216.1 607.323 208.474 608.756 202.754C610.189 196.081 611.621 193.697 614.248 193.697C618.784 193.697 626.663 198.702 626.663 204.184C626.663 206.09 623.559 210.619 621.649 217.054L619.5 224.68H627.857C640.273 224.68 639.795 222.297 642.422 222.297C645.048 222.297 649.107 227.063 649.107 230.161C649.107 233.26 639.556 235.643 627.857 235.643H617.59C615.919 247.083 614.725 262.097 614.725 282.355C614.725 308.094 620.694 311.669 628.812 311.669C636.691 311.669 644.809 300.23 649.346 294.033C651.017 291.65 652.211 289.982 654.121 289.982C656.27 289.982 658.896 292.603 658.896 294.748C658.896 296.655 658.18 297.846 656.509 300.23C650.54 308.571 640.512 322.394 624.992 322.394Z" fill="white"/>
<path d="M665.572 285.692C672.735 281.163 685.151 267.579 685.151 253.041C685.151 250.181 683.957 248.989 681.808 248.989C676.317 248.989 665.572 268.532 665.572 285.692ZM684.673 322.156C664.379 322.156 649.575 309.524 649.575 287.598C649.575 260.906 667.721 238.026 683.002 238.026C693.985 238.026 698.044 243.269 698.044 252.564C698.044 272.345 677.033 292.365 667.96 298.561C669.393 306.664 675.6 311.669 687.061 311.669C701.148 311.669 710.46 300.23 714.996 294.033C716.668 291.65 717.862 289.982 719.772 289.982C721.921 289.982 724.547 292.603 724.547 294.748C724.547 296.655 723.831 297.846 722.159 300.23C716.19 308.571 704.73 322.156 684.673 322.156Z" fill="white"/>
<path d="M754.008 312.623C769.05 312.623 777.646 300.23 782.182 294.033C783.854 291.65 785.047 289.982 786.957 289.982C789.106 289.982 791.733 292.603 791.733 294.748C791.733 296.655 791.016 297.846 789.345 300.23C783.376 308.571 772.154 323.347 751.382 323.347C734.668 323.347 716.522 310.478 716.522 287.36C716.522 257.569 731.087 238.026 749.71 238.026C764.752 238.026 769.528 249.943 769.528 259.237C769.528 265.911 766.185 269.962 761.171 269.962C757.112 269.962 753.531 266.864 753.531 263.527C753.531 260.191 755.918 258.761 755.918 255.901C755.918 253.041 754.008 248.989 749.472 248.989C742.309 248.989 730.848 263.289 730.848 287.36C730.848 304.519 739.921 312.623 754.008 312.623Z" fill="white"/>
<path d="M854.826 309.763C863.183 309.763 868.913 300.23 873.449 294.033C875.121 291.65 876.315 289.982 878.225 289.982C880.374 289.982 883 292.603 883 294.748C883 296.655 882.284 297.846 880.612 300.23C874.643 308.571 865.809 321.441 852.916 321.441C832.382 321.441 831.666 293.318 831.666 293.318C831.666 293.318 814.236 321.441 798 321.441C786.062 321.441 780.571 309.048 780.571 298.085C780.571 261.382 804.208 237.55 819.011 237.55C834.054 237.55 836.68 249.943 836.919 250.896C837.157 250.419 842.41 241.125 848.618 241.125C852.677 241.125 854.587 244.223 854.587 248.036C854.587 253.518 845.514 258.046 845.514 278.542C845.514 294.986 846.708 309.763 854.826 309.763ZM820.683 248.274C812.326 248.274 795.135 267.34 795.135 296.178C795.135 303.804 796.568 309.763 802.537 309.763C809.7 309.763 829.039 281.163 829.039 278.304C829.039 275.444 825.697 274.729 825.697 271.154C825.697 267.579 828.562 265.434 828.562 261.859C828.562 253.518 826.891 248.274 820.683 248.274Z" fill="white"/>
<path d="M482.342 197.749C488.312 197.749 492.132 200.132 492.132 205.137C492.132 209.427 489.267 211.81 484.014 213.24C479.477 214.432 476.373 220.39 476.373 228.732C476.373 241.601 479.716 265.672 479.716 287.36C479.716 309.048 465.39 323.109 450.109 323.109C436.5 323.109 430.77 318.342 430.77 312.861C430.77 307.856 434.59 304.281 438.649 304.281C444.618 304.281 444.14 313.099 449.871 313.099C455.601 313.099 465.151 306.426 465.151 287.837C465.151 269.247 462.048 246.368 462.048 227.302C462.048 209.189 472.553 197.749 482.342 197.749ZM520.783 162C526.752 162 529.14 165.813 529.14 170.818C529.14 178.445 515.292 190.838 494.997 190.838C479.477 190.838 463.48 182.734 446.05 182.734C424.8 182.734 407.61 198.941 407.61 222.297C407.61 237.073 416.205 244.223 421.458 244.223C426.711 244.223 427.188 240.171 430.77 240.171C434.351 240.171 437.694 242.793 437.694 247.321C437.694 251.849 432.441 257.331 423.845 257.331C409.281 257.331 394 244.938 394 222.297C394 193.697 417.16 170.341 446.289 170.341C473.031 170.341 482.104 178.445 497.146 178.445C507.89 178.445 510.994 175.108 512.427 171.533C514.098 167.005 516.008 162 520.783 162Z" fill="white"/>
<path fill-rule="evenodd" clip-rule="evenodd" d="M81.8497 163.73V159.768C81.8497 133.878 70.2256 109.573 52.7894 87.1169C40.3727 71.2658 35.8816 59.3775 35.8816 47.7534V43.5265C35.8816 31.6382 37.7309 27.6754 43.5429 27.6754C49.0908 27.6754 51.7326 31.9023 51.7326 49.6027C51.7326 58.0996 51.391 60.7892 50.8452 65.0878C50.7122 66.1352 50.567 67.2782 50.4117 68.624L77.0944 71.7942C78.1511 63.8687 78.9437 56.7357 78.9437 46.6967C78.9437 18.9573 69.9614 0.728561 41.1653 0.728561C11.0482 0.728561 0.745026 20.8066 0.745026 47.2251V50.3953C0.745026 73.6435 7.61382 90.2871 24.7858 110.894C41.9578 131.764 46.1848 145.502 46.1848 160.56V166.108C46.1848 178.525 43.0146 183.016 37.2025 183.016C30.8621 183.016 27.956 178.525 27.956 161.353C27.956 154.484 28.7486 146.558 29.8053 138.897L3.38687 135.727C2.33013 143.124 1.2734 153.163 1.2734 164.259C1.2734 193.583 12.105 210.227 39.316 210.227C64.9419 210.227 81.8497 196.225 81.8497 163.73ZM203.907 207.585V4.16295H169.035V89.2304H148.957V4.16295H114.084V207.057H148.957V117.762H169.035V207.585H203.907ZM275.379 207.057V4.16295H240.243V207.057H275.379ZM396.127 182.234C390.231 189.541 385.923 198.165 383.702 207.585H364.538C362.952 203.887 362.16 199.66 361.896 195.433C361.534 183.315 361.42 176.398 361.299 169.087C361.243 165.718 361.186 162.266 361.103 158.183C360.575 127.801 356.348 124.631 352.121 124.631H347.101V207.585H311.965V4.16295H355.819C384.087 4.16295 399.146 20.2782 399.146 57.5282C399.146 85.796 396.768 100.855 379.068 109.573C394.39 119.347 395.976 143.124 395.976 156.069V171.392C395.976 175.501 396.025 179.068 396.127 182.234ZM431.931 198.616V207.585H453.796C455.173 204.265 456.9 201.226 458.93 198.525C459.432 197.856 459.958 197.203 460.507 196.568C455.444 195.466 450.756 194.734 446.05 194.734C440.86 194.734 436.017 196.101 431.931 198.616ZM607.49 183.239C607.036 183.461 606.585 183.711 606.138 183.989C603.58 185.582 601.895 187.68 600.788 189.51C598.834 192.739 597.799 196.655 597.066 200.038C596.53 202.198 596.032 204.56 595.562 207.057H536.16V184.5C536.235 184.398 536.31 184.297 536.384 184.194C538.832 180.808 541.14 176.165 541.14 170.818C541.14 166.614 540.157 161.244 536.341 156.757C536.281 156.687 536.221 156.617 536.16 156.548V4.16295H607.226V32.1665H571.297V88.4378H601.15V116.97H571.297V179.053H607.49V183.239ZM467.068 160.051V4.16295H431.931V159.93C436.542 158.891 441.347 158.341 446.289 158.341C454.519 158.341 461.285 159.047 467.068 160.051ZM510.261 200.871C508.224 201.412 506.108 201.854 503.921 202.18C504.062 203.151 504.132 204.14 504.132 205.137C504.132 205.962 504.084 206.779 503.988 207.585H510.261V200.871ZM351.857 32.1665C359.518 32.1665 364.802 36.3935 364.802 62.8119C364.802 90.023 359.518 96.3634 351.593 96.3634H347.101V32.1665H351.857ZM728.64 4.16295H695.617L682.936 81.0407L671.312 4.16295H634.326L663.914 128.33V207.585H699.051V128.594L728.64 4.16295Z" fill="white"/>
</svg>
